<?xml version="1.0" standalone="no"?>
<!DOCTYPE svg PUBLIC "-//W3C//DTD SVG 20010904//EN"
 "http://www.w3.org/TR/2001/REC-SVG-20010904/DTD/svg10.dtd">
<svg version="1.0" xmlns="http://www.w3.org/2000/svg"
 width="1242.000000pt" height="351.000000pt" viewBox="0 0 1242.000000 351.000000"
 preserveAspectRatio="xMidYMid meet">

<g transform="translate(0.000000,351.000000) scale(0.100000,-0.100000)"
fill="#000000" stroke="none">
<path d="M20 3501 c0 -6 5 -13 10 -16 6 -3 10 1 10 9 0 9 -4 16 -10 16 -5 0
-10 -4 -10 -9z"/>
<path d="M544 3476 c6 -19 12 -33 14 -31 7 6 -9 65 -17 65 -5 0 -3 -15 3 -34z"/>
<path d="M721 3494 c0 -11 3 -14 6 -6 3 7 2 16 -1 19 -3 4 -6 -2 -5 -13z"/>
<path d="M2168 3503 c7 -3 16 -2 19 1 4 3 -2 6 -13 5 -11 0 -14 -3 -6 -6z"/>
<path d="M2926 3501 c-4 -7 -5 -15 -2 -18 9 -9 19 4 14 18 -4 11 -6 11 -12 0z"/>
<path d="M3315 3500 c4 -6 11 -8 16 -5 14 9 11 15 -7 15 -8 0 -12 -5 -9 -10z"/>
<path d="M4231 3494 c0 -11 3 -14 6 -6 3 7 2 16 -1 19 -3 4 -6 -2 -5 -13z"/>
<path d="M12340 3499 c0 -5 5 -7 10 -4 6 3 10 8 10 11 0 2 -4 4 -10 4 -5 0
-10 -5 -10 -11z"/>
<path d="M105 3490 c-3 -5 1 -10 10 -10 9 0 13 5 10 10 -3 6 -8 10 -10 10 -2
0 -7 -4 -10 -10z"/>
<path d="M1317 3494 c-8 -9 11 -44 23 -44 6 0 10 6 10 14 0 16 -24 38 -33 30z"/>
<path d="M2820 3485 c0 -8 4 -15 10 -15 5 0 7 7 4 15 -4 8 -8 15 -10 15 -2 0
-4 -7 -4 -15z"/>
<path d="M4527 3485 c-4 -8 -2 -17 3 -20 6 -4 10 3 10 14 0 25 -6 27 -13 6z"/>
<path d="M4350 3470 c0 -11 5 -20 10 -20 6 0 10 9 10 20 0 11 -4 20 -10 20 -5
0 -10 -9 -10 -20z"/>
<path d="M3800 3465 c0 -9 5 -15 11 -13 6 2 11 8 11 13 0 5 -5 11 -11 13 -6 2
-11 -4 -11 -13z"/>
<path d="M4117 3453 c-12 -11 -8 -23 8 -23 8 0 15 7 15 15 0 16 -12 20 -23 8z"/>
<path d="M9560 3450 c0 -5 5 -10 10 -10 6 0 10 5 10 10 0 6 -4 10 -10 10 -5 0
-10 -4 -10 -10z"/>
<path d="M4265 3430 c-11 -17 5 -32 21 -19 7 6 11 15 8 20 -7 12 -21 11 -29
-1z"/>
<path d="M1454 3420 c-5 -5 -63 -11 -129 -12 -112 -3 -120 -4 -120 -23 0 -18
8 -20 107 -25 104 -5 107 -6 130 -35 20 -26 23 -41 24 -125 2 -98 -4 -128 -17
-94 -7 17 -8 17 -8 -4 -1 -13 6 -30 15 -39 9 -9 12 -22 8 -32 -3 -9 -5 -23 -4
-31 1 -8 2 -161 2 -339 -1 -257 -3 -326 -14 -332 -11 -7 -10 -11 2 -19 12 -7
15 -31 14 -112 -1 -198 -10 -322 -25 -345 -14 -24 -16 -24 -166 -28 -43 -1
-70 -16 -60 -33 7 -11 666 -12 672 -1 15 23 -9 34 -82 37 -84 3 -115 15 -111
40 1 9 -1 22 -4 28 -6 8 -13 599 -9 684 1 15 92 19 350 12 l93 -2 -6 -302 c-4
-167 -7 -324 -6 -350 0 -26 -6 -61 -15 -78 -16 -32 -18 -32 -134 -35 -30 0
-48 -6 -55 -17 -6 -10 -8 -19 -5 -22 7 -7 678 -10 685 -3 15 15 -7 38 -33 35
-16 -1 -65 1 -111 5 -128 13 -117 -49 -118 667 -1 698 2 793 31 835 16 24 20
27 23 13 5 -24 17 -23 34 4 12 18 26 22 96 26 59 3 82 8 82 18 0 24 -34 32
-130 28 -52 -2 -192 -4 -310 -4 -226 -1 -250 -3 -250 -24 0 -9 23 -16 73 -20
39 -4 80 -9 90 -12 25 -8 47 -56 47 -104 0 -37 -2 -41 -20 -35 -11 4 -20 2
-20 -4 0 -6 8 -11 19 -11 27 0 31 -34 31 -294 0 -190 -3 -236 -15 -252 -12
-16 -16 -17 -24 -5 -8 12 -12 12 -24 2 -14 -11 -108 -15 -318 -12 l-66 1 3
332 c5 410 -5 383 144 387 19 1 42 6 50 11 13 9 12 12 -4 25 -16 12 -55 15
-198 14 -115 -1 -183 3 -191 10 -9 6 -17 7 -23 1z"/>
<path d="M4466 3421 c-3 -5 0 -11 8 -14 15 -6 26 1 26 15 0 11 -27 10 -34 -1z"/>
<path d="M5100 3422 c-24 -2 -47 -6 -50 -10 -3 -4 -31 -19 -62 -34 -42 -20
-58 -33 -58 -48 0 -10 -9 -24 -20 -30 -11 -6 -20 -20 -20 -31 0 -11 -12 -36
-27 -55 -14 -20 -27 -43 -28 -52 -1 -9 -5 -24 -8 -32 -11 -27 -23 -159 -15
-154 17 11 20 -28 3 -46 -11 -12 -13 -20 -7 -20 7 0 12 -10 12 -23 0 -12 11
-53 25 -91 32 -87 127 -190 217 -233 45 -22 60 -35 67 -58 5 -16 10 -22 10
-12 1 9 6 17 11 17 31 0 259 -130 269 -153 2 -5 19 -23 38 -40 19 -17 47 -57
61 -87 24 -49 27 -67 27 -160 0 -118 -11 -148 -71 -189 -19 -13 -34 -29 -34
-35 -1 -27 -75 -58 -151 -63 -70 -5 -81 -3 -129 23 -28 15 -61 40 -72 54 -11
14 -34 41 -51 60 -18 19 -41 60 -51 90 -10 30 -22 60 -27 65 -4 6 -13 39 -19
75 -7 36 -21 94 -31 130 -10 36 -24 103 -30 150 -13 89 -30 123 -51 102 -8 -8
-8 -15 1 -25 12 -16 7 -142 -9 -196 -5 -20 -4 -42 3 -61 8 -22 9 -35 1 -48 -8
-12 -9 -51 -4 -117 7 -109 6 -115 -17 -115 -11 0 -13 -4 -5 -12 15 -20 25 -95
13 -103 -15 -8 -14 -72 0 -81 15 -9 44 29 58 76 16 53 55 93 84 85 12 -4 57
-42 99 -85 92 -92 126 -105 251 -98 93 6 136 26 203 92 89 89 138 223 135 376
-2 132 -18 194 -76 300 -18 31 -85 93 -136 126 -31 19 -39 29 -34 44 7 23 2
25 -24 9 -14 -9 -25 -9 -50 2 -17 8 -31 17 -31 21 0 5 -8 8 -19 8 -10 0 -24 7
-31 15 -7 8 -20 15 -30 15 -9 0 -24 8 -34 18 -9 11 -35 25 -57 32 -23 8 -48
24 -56 37 -9 13 -21 23 -28 23 -7 0 -23 16 -36 35 -13 19 -27 35 -30 35 -14 0
-41 88 -48 155 -7 61 -5 78 17 137 26 71 75 128 112 128 10 0 22 5 25 10 9 14
89 13 139 -2 28 -9 62 -34 109 -80 37 -37 67 -72 67 -78 0 -16 38 -98 49 -104
5 -3 12 -27 16 -53 4 -27 10 -52 13 -58 4 -5 12 -41 19 -79 10 -60 9 -74 -4
-100 -12 -22 -13 -31 -4 -34 7 -2 17 -15 22 -29 13 -36 34 -23 35 23 9 253 15
428 19 517 4 82 2 107 -7 107 -13 0 -38 -44 -38 -67 0 -15 -41 -58 -65 -66
-20 -8 -57 15 -111 69 -43 45 -81 67 -129 78 -51 12 -59 12 -105 8z"/>
<path d="M123 3409 c-8 -8 -8 -20 -2 -38 9 -26 5 -429 -5 -506 -15 -117 -15
-115 7 -141 32 -37 56 -24 55 29 -2 49 34 223 52 256 7 13 20 51 30 85 22 76
46 133 60 141 5 3 10 14 10 23 0 16 12 34 60 93 11 14 31 19 75 21 l59 3 11
-90 c16 -131 12 -242 -10 -288 -17 -37 -17 -41 -2 -67 20 -34 23 -170 5 -200
-9 -15 -9 -24 1 -44 9 -16 11 -34 6 -53 -5 -15 -7 -32 -6 -38 1 -5 5 -147 8
-316 6 -336 -1 -408 -41 -434 -15 -10 -54 -15 -126 -16 -58 -1 -108 -4 -113
-6 -4 -2 -3 -12 2 -22 7 -13 23 -18 56 -19 25 0 52 -5 59 -12 11 -8 15 -8 18
2 4 10 69 13 309 13 167 0 309 4 316 8 7 4 10 14 6 22 -4 12 -28 15 -118 15
-128 0 -138 5 -149 77 -3 23 -6 325 -5 670 0 345 0 662 0 704 l0 77 32 6 c74
15 100 8 139 -36 20 -23 44 -62 54 -87 9 -25 22 -55 28 -66 7 -11 20 -42 30
-69 17 -45 17 -49 2 -58 -19 -11 -12 -30 9 -22 9 4 16 -3 21 -23 3 -15 15 -54
26 -87 12 -36 18 -71 15 -92 -3 -19 -1 -36 4 -39 5 -4 9 -17 9 -30 0 -13 8
-31 17 -40 27 -27 42 2 32 62 -5 27 -11 159 -14 294 -6 216 -5 247 9 258 19
16 21 32 4 28 -8 -1 -14 10 -16 26 -2 15 -9 27 -15 27 -7 1 -84 0 -172 0 -88
-1 -167 -1 -175 -1 -8 1 -159 3 -336 6 -221 3 -324 1 -331 -6z"/>
<path d="M3447 3414 c-4 -4 -57 -8 -119 -10 -62 -1 -115 -3 -118 -4 -9 -2
-251 1 -375 5 -136 5 -155 2 -155 -26 0 -17 8 -19 83 -19 45 0 99 -6 120 -13
75 -27 71 9 73 -657 1 -327 -1 -622 -5 -655 -6 -55 -8 -60 -29 -58 -13 2 -25
-4 -29 -13 -5 -13 -10 -9 -25 17 l-19 34 6 -30 c7 -33 55 -85 79 -85 24 0 19
-15 -16 -53 -30 -31 -40 -35 -104 -42 -49 -4 -79 -3 -94 5 -26 14 -50 7 -50
-14 0 -30 23 -31 767 -27 314 1 342 3 346 19 3 9 5 151 5 314 0 164 3 306 7
317 3 11 1 22 -4 26 -15 9 -51 -68 -44 -94 6 -25 -33 -158 -84 -281 -53 -128
-68 -154 -114 -198 -49 -47 -121 -66 -229 -63 -117 4 -146 12 -154 44 -5 20
-8 301 -6 627 l0 135 33 2 c57 4 114 -7 135 -27 12 -11 25 -20 30 -20 11 0 48
-48 80 -103 20 -35 43 -158 54 -286 3 -33 4 -34 21 -17 9 10 14 22 11 28 -4 6
-8 205 -10 442 -3 338 -7 431 -16 431 -9 0 -15 -29 -21 -94 -12 -153 -56 -229
-167 -294 -33 -19 -58 -25 -96 -25 l-52 1 -4 56 c-2 31 -4 183 -3 339 1 208 5
286 14 295 17 17 262 23 301 7 17 -7 30 -18 30 -26 0 -7 10 -16 23 -20 21 -6
57 -37 57 -49 0 -8 44 -69 53 -73 4 -2 7 -10 7 -19 0 -14 20 -66 41 -105 11
-22 39 -150 45 -212 2 -27 9 -57 15 -67 10 -19 28 -26 30 -11 0 4 2 18 4 32 1
14 -2 63 -7 110 -5 47 -10 174 -10 283 0 139 -4 197 -12 199 -6 0 -71 2 -144
3 -90 1 -136 6 -141 14 -4 6 -10 8 -14 5z m260 -1410 c-3 -3 -12 -4 -19 -1 -8
3 -5 6 6 6 11 1 17 -2 13 -5z"/>
<path d="M1165 3401 c-3 -5 -1 -12 5 -16 5 -3 10 1 10 9 0 18 -6 21 -15 7z"/>
<path d="M4340 3400 c0 -5 7 -10 15 -10 8 0 15 5 15 10 0 6 -7 10 -15 10 -8 0
-15 -4 -15 -10z"/>
<path d="M4271 3374 c0 -11 3 -14 6 -6 3 7 2 16 -1 19 -3 4 -6 -2 -5 -13z"/>
<path d="M5684 3379 c-9 -15 10 -32 38 -35 13 -1 56 -3 96 -3 59 -1 76 -5 93
-22 18 -18 20 -29 15 -69 -4 -27 -2 -51 3 -54 12 -8 15 -52 13 -256 -2 -158
-2 -228 1 -440 0 -36 0 -96 -2 -135 -1 -38 -1 -131 -1 -205 2 -192 -8 -290
-28 -290 -12 0 -13 -3 -4 -12 19 -19 15 -25 -42 -47 -39 -16 -71 -22 -120 -20
-71 2 -91 -5 -64 -25 12 -9 99 -11 345 -9 299 3 328 5 328 20 0 14 -9 16 -56
14 -33 -1 -71 4 -92 12 -31 13 -36 21 -46 68 -12 55 -16 654 -5 683 6 14 32
16 223 14 l216 -3 -1 -320 c-1 -348 -6 -420 -31 -411 -8 4 -22 -3 -32 -15 -13
-17 -33 -23 -82 -28 -47 -4 -64 -10 -64 -21 0 -13 44 -15 333 -16 183 -1 335
2 337 6 11 18 -27 28 -117 32 -141 5 -139 2 -146 209 -5 162 -5 162 17 156 27
-7 27 9 0 24 l-21 11 4 526 c6 595 3 573 82 611 31 15 62 21 114 21 40 0 72 4
72 10 0 21 -44 32 -104 26 -58 -6 -397 -8 -519 -3 -32 1 -60 1 -62 -1 -4 -4
-301 -2 -532 3 -98 3 -155 0 -159 -6z m778 -39 c46 0 71 -5 82 -15 8 -8 19
-15 25 -15 6 0 13 -11 17 -25 5 -18 9 -417 6 -595 0 -14 0 -36 1 -50 l2 -25
-150 -2 c-82 -1 -183 0 -223 3 l-73 6 1 306 c1 169 4 322 7 340 3 21 15 40 31
50 25 16 145 33 187 26 11 -2 50 -4 87 -4z"/>
<path d="M6328 3290 c-3 -16 -1 -30 4 -30 4 0 8 6 8 14 0 8 3 21 6 30 3 9 2
16 -4 16 -5 0 -12 -13 -14 -30z"/>
<path d="M6190 3279 c0 -5 5 -7 10 -4 6 3 10 8 10 11 0 2 -4 4 -10 4 -5 0 -10
-5 -10 -11z"/>
<path d="M6403 3205 c-9 -25 4 -29 17 -6 7 15 7 21 0 21 -6 0 -13 -7 -17 -15z"/>
<path d="M6306 3191 c-7 -10 22 -37 30 -28 9 8 -3 37 -15 37 -5 0 -12 -4 -15
-9z"/>
<path d="M6315 3131 c-8 -14 7 -20 37 -14 15 3 25 9 22 14 -7 12 -51 12 -59 0z"/>
<path d="M6440 3070 c0 -5 5 -10 10 -10 6 0 10 5 10 10 0 6 -4 10 -10 10 -5 0
-10 -4 -10 -10z"/>
<path d="M6390 2650 c0 -5 5 -10 10 -10 6 0 10 5 10 10 0 6 -4 10 -10 10 -5 0
-10 -4 -10 -10z"/>
<path d="M7746 3374 c-9 -8 -14 -20 -10 -25 10 -17 -37 -193 -58 -216 -12 -13
-18 -29 -14 -39 3 -9 2 -22 -3 -28 -10 -13 -21 -66 -26 -126 -3 -46 -42 -165
-77 -233 -10 -20 -20 -59 -23 -85 -10 -127 -37 -242 -60 -254 -10 -6 -15 -24
-15 -51 0 -43 -3 -54 -38 -188 -47 -176 -115 -280 -213 -324 -31 -14 -70 -25
-87 -25 -29 0 -50 -15 -39 -27 3 -2 123 -7 267 -9 190 -3 266 -1 276 7 22 18
-2 39 -37 32 -38 -7 -105 20 -146 60 -29 27 -33 38 -33 81 0 28 13 96 29 151
16 55 36 123 43 150 l14 50 189 0 190 0 18 -70 c10 -38 33 -136 50 -218 l31
-147 -21 -22 c-24 -24 -90 -39 -178 -42 -63 -1 -86 -17 -38 -26 15 -3 91 -3
168 0 77 3 227 1 333 -3 106 -5 196 -6 200 -3 3 4 2 15 -4 24 -9 13 -27 17
-86 17 -64 1 -79 5 -105 25 -29 24 -63 89 -63 120 0 9 -9 33 -20 55 -11 22
-20 58 -20 80 0 22 -7 51 -16 64 -9 12 -23 54 -31 93 -8 40 -27 110 -43 157
-15 47 -31 105 -35 128 -4 23 -13 47 -21 54 -8 6 -12 20 -9 30 4 10 1 27 -5
38 -5 11 -17 55 -25 98 -8 43 -26 114 -40 157 -14 43 -25 94 -25 112 0 19 -4
34 -10 34 -5 0 -10 10 -10 23 0 12 -7 35 -15 51 -8 15 -15 36 -15 45 0 17 -19
95 -46 189 -16 56 -24 61 -48 36z m-29 -481 c44 -181 132 -519 142 -544 5 -15
7 -30 4 -33 -12 -11 -351 -7 -359 5 -3 6 -2 21 3 32 16 35 33 92 33 111 0 9 9
43 20 75 10 32 24 89 30 126 6 38 15 75 21 81 5 7 21 59 35 115 38 151 41 153
71 32z"/>
<path d="M11711 3374 c0 -11 3 -14 6 -6 3 7 2 16 -1 19 -3 4 -6 -2 -5 -13z"/>
<path d="M8481 3370 c-27 -16 -3 -40 41 -41 114 -2 137 -7 177 -35 35 -26 41
-35 46 -79 11 -87 -1 -633 -13 -648 -9 -10 -8 -17 1 -26 17 -17 14 -685 -4
-717 -16 -31 -97 -56 -173 -53 -50 2 -62 0 -64 -14 -3 -15 33 -16 410 -18 227
-1 422 -1 433 -1 11 0 112 1 225 1 113 1 234 6 269 12 55 8 66 8 82 -7 17 -15
46 -17 261 -15 134 1 252 2 263 2 11 0 36 -2 55 -4 19 -2 39 -2 44 1 4 2 113
4 242 3 213 -1 234 0 243 16 14 28 19 653 4 653 -20 0 -44 -62 -50 -125 -5
-65 -64 -236 -115 -336 -39 -78 -96 -134 -156 -153 -29 -9 -91 -15 -164 -16
-113 -1 -117 0 -124 22 -11 32 -11 35 -13 422 -1 200 2 353 7 358 16 16 163
-20 183 -45 10 -12 25 -29 33 -37 28 -30 74 -118 80 -156 4 -21 10 -81 13
-131 3 -64 9 -93 17 -93 10 0 12 98 10 448 -3 507 -1 462 -13 462 -4 0 -11
-42 -14 -94 -4 -76 -10 -103 -31 -140 -14 -26 -26 -52 -26 -59 0 -7 -18 -30
-40 -50 -44 -42 -120 -70 -178 -65 l-37 3 -6 89 c-8 109 -3 547 6 575 8 27 25
31 140 31 145 1 155 -1 217 -50 49 -38 62 -56 103 -144 63 -135 83 -195 91
-271 7 -58 28 -125 38 -122 7 2 10 28 9 63 -1 32 -4 166 -6 297 -4 243 -6 257
-44 264 -10 2 -205 6 -433 8 -228 3 -459 7 -512 9 -84 2 -98 1 -98 -13 0 -32
17 -38 125 -44 158 -9 152 1 155 -259 2 -112 3 -243 2 -293 0 -121 -1 -274 -1
-305 -1 -14 -2 -155 -4 -315 -3 -304 -9 -345 -48 -345 -10 0 -21 -4 -24 -10
-8 -14 -218 -13 -232 1 -7 7 -22 8 -49 0 -21 -6 -42 -7 -48 -2 -6 4 -28 7 -49
6 -52 -2 -98 30 -115 79 -7 21 -20 50 -30 65 -10 14 -26 44 -34 66 -15 39 -49
116 -89 201 -10 23 -19 50 -19 61 0 10 -9 29 -20 41 -11 12 -20 27 -20 34 0 8
-9 31 -20 53 -11 22 -20 47 -20 56 0 9 -7 22 -15 29 -8 7 -15 19 -15 26 0 7
-9 28 -20 46 -11 18 -20 39 -20 47 0 8 -6 22 -13 30 -13 17 -28 57 -47 128
-13 50 -9 58 72 178 30 44 78 115 108 158 29 42 67 87 84 99 17 12 37 30 44
40 7 10 18 18 23 18 6 0 25 11 42 24 35 27 100 45 160 46 25 0 40 5 44 16 14
36 37 35 -687 34 -337 -1 -615 6 -629 15 -4 2 -13 0 -20 -5z m714 -39 c3 -6
27 -13 53 -16 80 -10 90 -14 128 -47 36 -31 36 -33 30 -87 -7 -54 -21 -85 -36
-76 -4 2 -10 -10 -13 -29 -3 -18 -19 -53 -35 -77 -72 -105 -142 -218 -142
-227 0 -6 -10 -12 -22 -14 -15 -2 -23 -10 -23 -23 0 -31 -64 -140 -92 -158 -7
-4 -13 -13 -13 -20 -1 -17 -70 -110 -77 -103 -12 12 -3 809 9 824 23 27 68 42
125 42 32 0 65 5 73 10 19 12 27 12 35 1z m1695 -62 c0 -5 -7 -9 -15 -9 -15 0
-20 12 -9 23 8 8 24 -1 24 -14z m55 -7 c0 -31 -19 -28 -23 4 -3 18 0 25 10 22
7 -3 13 -14 13 -26z m-1839 -724 c4 -13 19 -50 34 -83 16 -33 51 -116 78 -185
28 -69 76 -186 107 -260 86 -208 77 -227 -107 -236 -126 -7 -205 8 -242 45
l-30 30 2 266 2 266 41 57 c22 31 49 72 61 90 23 37 44 41 54 10z m-242 -696
c6 -10 -21 -52 -34 -52 -5 0 -4 14 1 30 11 30 23 38 33 22z m-64 -34 c0 -19
-2 -20 -10 -8 -13 19 -13 30 0 30 6 0 10 -10 10 -22z"/>
<path d="M9265 3160 c-3 -5 -1 -10 4 -10 6 0 11 5 11 10 0 6 -2 10 -4 10 -3 0
-8 -4 -11 -10z"/>
<path d="M9270 3039 c0 -5 5 -7 10 -4 6 3 10 8 10 11 0 2 -4 4 -10 4 -5 0 -10
-5 -10 -11z"/>
<path d="M415 3339 c-4 -6 -5 -13 -2 -16 7 -7 27 6 27 18 0 12 -17 12 -25 -2z"/>
<path d="M4061 3334 c0 -11 3 -14 6 -6 3 7 2 16 -1 19 -3 4 -6 -2 -5 -13z"/>
<path d="M4520 3342 c0 -15 28 -47 35 -40 8 8 -13 48 -25 48 -6 0 -10 -4 -10
-8z"/>
<path d="M11062 3332 c-9 -23 11 -30 105 -34 150 -7 151 -9 153 -355 1 -142 2
-269 2 -283 0 -14 1 -68 1 -120 6 -325 -1 -690 -12 -718 -18 -42 -98 -77 -181
-77 -33 0 -45 -4 -45 -15 0 -11 10 -15 35 -14 127 4 389 6 396 3 5 -2 69 -3
142 -1 119 3 133 5 130 20 -3 14 -20 18 -102 23 -111 8 -130 18 -148 85 -6 22
-11 182 -13 372 l-2 332 114 0 c102 0 117 -2 151 -24 21 -13 45 -35 53 -47 21
-33 44 -162 30 -167 -6 -2 -8 -9 -4 -15 12 -19 14 -49 16 -252 2 -163 5 -194
20 -215 9 -13 17 -39 17 -57 0 -24 4 -31 15 -27 8 3 31 -3 52 -14 61 -33 101
-33 157 -3 67 36 106 106 112 205 3 39 7 86 9 104 3 26 0 32 -16 32 -10 0 -20
-3 -20 -7 -4 -26 -10 -115 -10 -152 0 -51 -13 -81 -34 -81 -7 0 -15 -10 -17
-22 -2 -18 -11 -24 -34 -26 -29 -3 -32 0 -39 35 -4 21 -8 74 -10 118 -7 186
-18 270 -41 327 -13 32 -24 63 -24 70 0 15 -43 79 -93 138 -40 47 -73 72 -122
92 l-30 12 40 7 c22 4 42 3 43 -2 2 -5 8 -9 14 -9 6 0 7 7 4 15 -4 11 3 19 22
26 130 52 242 190 242 300 0 37 1 39 25 33 27 -7 33 7 12 25 -10 8 -16 8 -25
-1 -8 -8 -12 0 -17 28 -4 22 -18 63 -33 92 -30 60 -107 152 -128 152 -7 0 -17
6 -21 13 -10 18 -134 77 -159 77 -11 0 -26 6 -33 13 -11 10 -14 10 -18 0 -5
-15 -30 -17 -35 -3 -2 6 -18 6 -42 0 -22 -5 -44 -6 -49 -3 -5 3 -131 6 -279 7
-216 1 -272 -2 -276 -12z m686 -34 c25 8 82 -9 112 -34 58 -50 91 -228 70
-384 -15 -111 -15 -109 -28 -155 -24 -79 -69 -111 -185 -127 -45 -7 -107 -12
-137 -12 l-55 -1 0 337 c0 309 1 339 18 355 23 23 167 45 182 28 6 -7 16 -10
23 -7z"/>
<path d="M11725 2980 c-3 -5 -1 -10 4 -10 6 0 11 5 11 10 0 6 -2 10 -4 10 -3
0 -8 -4 -11 -10z"/>
<path d="M11550 2950 c0 -5 5 -10 10 -10 6 0 10 5 10 10 0 6 -4 10 -10 10 -5
0 -10 -4 -10 -10z"/>
<path d="M11556 2724 c-3 -9 -6 -23 -6 -32 1 -15 3 -14 15 2 17 22 20 46 6 46
-5 0 -12 -7 -15 -16z"/>
<path d="M11765 2640 c-3 -5 3 -10 14 -10 12 0 21 5 21 10 0 6 -6 10 -14 10
-8 0 -18 -4 -21 -10z"/>
<path d="M1785 3330 c-3 -5 1 -10 10 -10 9 0 13 5 10 10 -3 6 -8 10 -10 10 -2
0 -7 -4 -10 -10z"/>
<path d="M2530 3330 c0 -5 5 -10 11 -10 5 0 7 5 4 10 -3 6 -8 10 -11 10 -2 0
-4 -4 -4 -10z"/>
<path d="M1328 3323 c7 -3 16 -2 19 1 4 3 -2 6 -13 5 -11 0 -14 -3 -6 -6z"/>
<path d="M3805 3320 c3 -5 8 -10 11 -10 2 0 4 5 4 10 0 6 -5 10 -11 10 -5 0
-7 -4 -4 -10z"/>
<path d="M1220 3310 c0 -5 5 -10 10 -10 6 0 10 5 10 10 0 6 -4 10 -10 10 -5 0
-10 -4 -10 -10z"/>
<path d="M2860 3310 c0 -5 5 -10 10 -10 6 0 10 5 10 10 0 6 -4 10 -10 10 -5 0
-10 -4 -10 -10z"/>
<path d="M5051 3304 c0 -11 3 -14 6 -6 3 7 2 16 -1 19 -3 4 -6 -2 -5 -13z"/>
<path d="M1890 3280 c0 -5 7 -10 16 -10 8 0 12 5 9 10 -3 6 -10 10 -16 10 -5
0 -9 -4 -9 -10z"/>
<path d="M4300 3260 c0 -5 5 -10 10 -10 6 0 10 5 10 10 0 6 -4 10 -10 10 -5 0
-10 -4 -10 -10z"/>
<path d="M785 3240 c-3 -5 -1 -10 4 -10 6 0 11 5 11 10 0 6 -2 10 -4 10 -3 0
-8 -4 -11 -10z"/>
<path d="M1765 3240 c3 -5 8 -10 11 -10 2 0 4 5 4 10 0 6 -5 10 -11 10 -5 0
-7 -4 -4 -10z"/>
<path d="M340 3210 c0 -5 5 -10 10 -10 6 0 10 5 10 10 0 6 -4 10 -10 10 -5 0
-10 -4 -10 -10z"/>
<path d="M492 3204 c4 -21 22 -23 26 -1 2 10 -3 17 -13 17 -10 0 -15 -6 -13
-16z"/>
<path d="M3846 3211 c-4 -7 -5 -15 -2 -18 9 -9 19 4 14 18 -4 11 -6 11 -12 0z"/>
<path d="M5765 3210 c-8 -13 4 -32 16 -25 12 8 12 35 0 35 -6 0 -13 -4 -16
-10z"/>
<path d="M6920 3193 c0 -10 8 -27 17 -38 14 -18 15 -18 9 -2 -3 10 -6 27 -6
38 0 10 -4 19 -10 19 -5 0 -10 -8 -10 -17z"/>
<path d="M3420 3156 c0 -15 24 -28 34 -19 7 7 -13 33 -25 33 -5 0 -9 -6 -9
-14z"/>
<path d="M26 3144 c-20 -19 -21 -34 -2 -34 7 0 16 11 18 25 6 29 5 30 -16 9z"/>
<path d="M5855 3150 c3 -5 10 -10 16 -10 5 0 9 5 9 10 0 6 -7 10 -16 10 -8 0
-12 -4 -9 -10z"/>
<path d="M1370 3134 c0 -17 22 -14 28 4 2 7 -3 12 -12 12 -9 0 -16 -7 -16 -16z"/>
<path d="M966 3101 c-4 -5 -2 -12 3 -15 5 -4 12 -2 15 3 4 5 2 12 -3 15 -5 4
-12 2 -15 -3z"/>
<path d="M3218 3070 c-4 -44 6 -54 16 -16 3 13 9 31 12 40 4 10 1 16 -9 16
-10 0 -16 -13 -19 -40z"/>
<path d="M3870 3100 c0 -5 5 -10 11 -10 5 0 7 5 4 10 -3 6 -8 10 -11 10 -2 0
-4 -4 -4 -10z"/>
<path d="M3180 3081 c0 -25 6 -27 13 -6 4 8 2 17 -3 20 -6 4 -10 -3 -10 -14z"/>
<path d="M9720 3090 c0 -5 5 -10 10 -10 6 0 10 5 10 10 0 6 -4 10 -10 10 -5 0
-10 -4 -10 -10z"/>
<path d="M3845 3061 c-8 -15 3 -31 21 -31 9 0 14 7 12 17 -4 20 -24 28 -33 14z"/>
<path d="M60 3035 c0 -15 4 -24 10 -20 13 8 13 32 0 40 -6 4 -10 -5 -10 -20z"/>
<path d="M446 3051 c-4 -7 -5 -15 -2 -18 9 -9 19 4 14 18 -4 11 -6 11 -12 0z"/>
<path d="M2612 3040 c0 -14 2 -19 5 -12 2 6 2 18 0 25 -3 6 -5 1 -5 -13z"/>
<path d="M7031 3044 c0 -11 3 -14 6 -6 3 7 2 16 -1 19 -3 4 -6 -2 -5 -13z"/>
<path d="M5015 3040 c-3 -5 -1 -10 4 -10 6 0 11 5 11 10 0 6 -2 10 -4 10 -3 0
-8 -4 -11 -10z"/>
<path d="M4220 3018 c1 -20 2 -21 13 -7 7 9 19 18 27 22 9 3 4 6 -12 6 -23 1
-28 -3 -28 -21z"/>
<path d="M4395 3030 c3 -5 11 -10 16 -10 6 0 7 5 4 10 -3 6 -11 10 -16 10 -6
0 -7 -4 -4 -10z"/>
<path d="M1702 3014 c4 -21 22 -23 26 -1 2 10 -3 17 -13 17 -10 0 -15 -6 -13
-16z"/>
<path d="M2700 3020 c0 -5 5 -10 11 -10 5 0 7 5 4 10 -3 6 -8 10 -11 10 -2 0
-4 -4 -4 -10z"/>
<path d="M3400 3020 c0 -5 4 -10 9 -10 6 0 13 5 16 10 3 6 -1 10 -9 10 -9 0
-16 -4 -16 -10z"/>
<path d="M3630 3019 c0 -5 5 -7 10 -4 6 3 10 8 10 11 0 2 -4 4 -10 4 -5 0 -10
-5 -10 -11z"/>
<path d="M1416 2968 c-6 -28 -2 -48 8 -37 8 10 15 69 7 69 -5 0 -11 -14 -15
-32z"/>
<path d="M1766 2991 c-4 -7 -5 -15 -2 -18 9 -9 19 4 14 18 -4 11 -6 11 -12 0z"/>
<path d="M450 2952 c0 -23 5 -42 10 -42 7 0 8 14 4 38 -9 51 -14 53 -14 4z"/>
<path d="M3221 2974 c0 -11 3 -14 6 -6 3 7 2 16 -1 19 -3 4 -6 -2 -5 -13z"/>
<path d="M1891 2934 c0 -11 3 -14 6 -6 3 7 2 16 -1 19 -3 4 -6 -2 -5 -13z"/>
<path d="M36 2925 c-3 -9 0 -15 9 -15 16 0 20 16 6 24 -5 3 -11 -1 -15 -9z"/>
<path d="M290 2921 c0 -5 7 -12 16 -15 22 -9 24 -8 24 9 0 8 -9 15 -20 15 -11
0 -20 -4 -20 -9z"/>
<path d="M977 2923 c-4 -3 -7 -15 -7 -25 0 -26 24 -17 28 10 3 21 -8 29 -21
15z"/>
<path d="M4760 2920 c0 -5 5 -10 10 -10 6 0 10 5 10 10 0 6 -4 10 -10 10 -5 0
-10 -4 -10 -10z"/>
<path d="M6935 2910 c3 -5 8 -10 11 -10 2 0 4 5 4 10 0 6 -5 10 -11 10 -5 0
-7 -4 -4 -10z"/>
<path d="M12365 2910 c3 -5 8 -10 11 -10 2 0 4 5 4 10 0 6 -5 10 -11 10 -5 0
-7 -4 -4 -10z"/>
<path d="M512 2890 c0 -14 2 -19 5 -12 2 6 2 18 0 25 -3 6 -5 1 -5 -13z"/>
<path d="M940 2894 c0 -8 5 -12 10 -9 6 4 8 11 5 16 -9 14 -15 11 -15 -7z"/>
<path d="M3790 2890 c0 -19 3 -21 12 -12 9 9 9 15 0 24 -9 9 -12 7 -12 -12z"/>
<path d="M4325 2900 c4 -6 11 -8 16 -5 14 9 11 15 -7 15 -8 0 -12 -5 -9 -10z"/>
<path d="M4780 2890 c0 -5 5 -10 11 -10 5 0 7 5 4 10 -3 6 -8 10 -11 10 -2 0
-4 -4 -4 -10z"/>
<path d="M225 2880 c3 -5 8 -10 11 -10 2 0 4 5 4 10 0 6 -5 10 -11 10 -5 0 -7
-4 -4 -10z"/>
<path d="M1301 2874 c0 -11 3 -14 6 -6 3 7 2 16 -1 19 -3 4 -6 -2 -5 -13z"/>
<path d="M1337 2883 c-11 -10 -8 -43 3 -43 12 0 31 35 23 44 -8 8 -18 8 -26
-1z"/>
<path d="M5065 2880 c3 -5 13 -10 21 -10 8 0 14 5 14 10 0 6 -9 10 -21 10 -11
0 -17 -4 -14 -10z"/>
<path d="M66 2845 c4 -8 8 -15 10 -15 2 0 4 7 4 15 0 8 -4 15 -10 15 -5 0 -7
-7 -4 -15z"/>
<path d="M1405 2837 c-4 -10 -5 -21 -1 -24 10 -10 18 4 13 24 -4 17 -4 17 -12
0z"/>
<path d="M4260 2835 c0 -8 5 -15 10 -15 6 0 10 7 10 15 0 8 -4 15 -10 15 -5 0
-10 -7 -10 -15z"/>
<path d="M2405 2830 c3 -5 8 -10 11 -10 2 0 4 5 4 10 0 6 -5 10 -11 10 -5 0
-7 -4 -4 -10z"/>
<path d="M3190 2830 c-12 -8 -10 -10 8 -10 13 0 20 4 17 10 -7 12 -6 12 -25 0z"/>
<path d="M3310 2825 c-14 -16 -10 -18 14 -9 9 3 16 10 16 15 0 14 -16 11 -30
-6z"/>
<path d="M1740 2810 c0 -5 5 -10 11 -10 5 0 7 5 4 10 -3 6 -8 10 -11 10 -2 0
-4 -4 -4 -10z"/>
<path d="M3390 2806 c0 -9 5 -16 10 -16 6 0 10 4 10 9 0 6 -4 13 -10 16 -5 3
-10 -1 -10 -9z"/>
<path d="M4240 2800 c0 -5 5 -10 10 -10 6 0 10 5 10 10 0 6 -4 10 -10 10 -5 0
-10 -4 -10 -10z"/>
<path d="M1334 2785 c-8 -19 2 -45 16 -45 5 0 10 14 10 30 0 31 -16 41 -26 15z"/>
<path d="M3273 2768 c-11 -18 -13 -68 -2 -68 12 0 29 35 29 59 0 23 -15 28
-27 9z"/>
<path d="M1950 2760 c0 -5 5 -10 11 -10 5 0 7 5 4 10 -3 6 -8 10 -11 10 -2 0
-4 -4 -4 -10z"/>
<path d="M3361 2754 c0 -11 3 -14 6 -6 3 7 2 16 -1 19 -3 4 -6 -2 -5 -13z"/>
<path d="M3180 2750 c0 -5 7 -7 15 -4 8 4 15 8 15 10 0 2 -7 4 -15 4 -8 0 -15
-4 -15 -10z"/>
<path d="M1010 2725 c33 -19 50 -19 50 0 0 11 -11 15 -37 15 l-38 -1 25 -14z"/>
<path d="M2050 2710 c0 -18 4 -29 10 -25 6 3 10 15 10 25 0 10 -4 22 -10 25
-6 4 -10 -7 -10 -25z"/>
<path d="M5464 2729 c-8 -14 11 -33 25 -25 6 4 11 14 11 22 0 16 -26 19 -36 3z"/>
<path d="M9820 2730 c0 -5 4 -10 9 -10 6 0 13 5 16 10 3 6 -1 10 -9 10 -9 0
-16 -4 -16 -10z"/>
<path d="M191 2694 c0 -11 3 -14 6 -6 3 7 2 16 -1 19 -3 4 -6 -2 -5 -13z"/>
<path d="M1075 2700 c-3 -5 1 -10 9 -10 9 0 16 5 16 10 0 6 -4 10 -9 10 -6 0
-13 -4 -16 -10z"/>
<path d="M2346 2685 c-3 -8 -1 -15 4 -15 6 0 10 7 10 15 0 8 -2 15 -4 15 -2 0
-6 -7 -10 -15z"/>
<path d="M2815 2680 c-3 -5 -1 -10 4 -10 6 0 11 5 11 10 0 6 -2 10 -4 10 -3 0
-8 -4 -11 -10z"/>
<path d="M5456 2673 c-6 -14 -5 -15 5 -6 7 7 10 15 7 18 -3 3 -9 -2 -12 -12z"/>
<path d="M7230 2675 c0 -8 5 -15 10 -15 6 0 10 7 10 15 0 8 -4 15 -10 15 -5 0
-10 -7 -10 -15z"/>
<path d="M12356 2655 c4 -8 10 -12 15 -9 14 8 10 24 -6 24 -9 0 -12 -6 -9 -15z"/>
<path d="M790 2646 c0 -9 5 -16 10 -16 6 0 10 4 10 9 0 6 -4 13 -10 16 -5 3
-10 -1 -10 -9z"/>
<path d="M2340 2653 c0 -4 5 -15 10 -23 8 -13 10 -13 10 2 0 9 -4 20 -10 23
-5 3 -10 3 -10 -2z"/>
<path d="M3544 2629 c-7 -12 15 -31 28 -23 4 3 8 12 8 20 0 17 -26 19 -36 3z"/>
<path d="M12370 2616 c0 -9 5 -16 10 -16 6 0 10 4 10 9 0 6 -4 13 -10 16 -5 3
-10 -1 -10 -9z"/>
<path d="M4540 2605 c0 -8 5 -15 10 -15 6 0 10 7 10 15 0 8 -4 15 -10 15 -5 0
-10 -7 -10 -15z"/>
<path d="M850 2580 c0 -5 5 -10 10 -10 6 0 10 5 10 10 0 6 -4 10 -10 10 -5 0
-10 -4 -10 -10z"/>
<path d="M1160 2565 c0 -8 5 -15 10 -15 6 0 10 7 10 15 0 8 -4 15 -10 15 -5 0
-10 -7 -10 -15z"/>
<path d="M2766 2571 c-4 -7 -5 -15 -2 -18 9 -9 19 4 14 18 -4 11 -6 11 -12 0z"/>
<path d="M12095 2569 c-4 -6 -5 -12 -2 -15 2 -3 7 2 10 11 7 17 1 20 -8 4z"/>
<path d="M220 2560 c0 -5 5 -10 10 -10 6 0 10 5 10 10 0 6 -4 10 -10 10 -5 0
-10 -4 -10 -10z"/>
<path d="M2440 2540 c0 -5 5 -10 10 -10 6 0 10 5 10 10 0 6 -4 10 -10 10 -5 0
-10 -4 -10 -10z"/>
<path d="M11895 2540 c3 -5 10 -10 16 -10 5 0 9 5 9 10 0 6 -7 10 -16 10 -8 0
-12 -4 -9 -10z"/>
<path d="M2020 2516 c0 -9 7 -16 16 -16 9 0 14 5 12 12 -6 18 -28 21 -28 4z"/>
<path d="M4904 2517 c-3 -9 -3 -25 1 -34 6 -16 8 -16 18 5 7 16 7 26 -1 34 -8
8 -13 7 -18 -5z"/>
<path d="M2835 2504 c-9 -9 -14 -19 -11 -21 8 -9 44 7 50 22 7 20 -18 19 -39
-1z"/>
<path d="M10453 2513 c-7 -2 -13 -9 -13 -14 0 -14 26 -10 40 6 10 12 10 15 -1
14 -8 0 -20 -3 -26 -6z"/>
<path d="M105 2490 c-3 -5 -1 -10 4 -10 6 0 11 5 11 10 0 6 -2 10 -4 10 -3 0
-8 -4 -11 -10z"/>
<path d="M836 2481 c-4 -7 -5 -15 -2 -18 9 -9 19 4 14 18 -4 11 -6 11 -12 0z"/>
<path d="M3866 2481 c-4 -7 -5 -15 -2 -18 9 -9 19 4 14 18 -4 11 -6 11 -12 0z"/>
<path d="M3215 2470 c-3 -5 1 -10 9 -10 9 0 16 5 16 10 0 6 -4 10 -9 10 -6 0
-13 -4 -16 -10z"/>
<path d="M3540 2449 c0 -11 5 -17 10 -14 6 3 10 13 10 21 0 8 -4 14 -10 14 -5
0 -10 -9 -10 -21z"/>
<path d="M2501 2428 c0 -28 2 -30 9 -13 12 28 12 45 0 45 -5 0 -10 -15 -9 -32z"/>
<path d="M1735 2440 c-3 -5 -1 -10 4 -10 6 0 11 5 11 10 0 6 -2 10 -4 10 -3 0
-8 -4 -11 -10z"/>
<path d="M885 2429 c-4 -6 -5 -12 -2 -15 2 -3 7 2 10 11 7 17 1 20 -8 4z"/>
<path d="M2690 2430 c-12 -7 -12 -12 -3 -21 10 -10 14 -9 19 5 8 22 2 27 -16
16z"/>
<path d="M2040 2419 c0 -5 5 -7 10 -4 6 3 10 8 10 11 0 2 -4 4 -10 4 -5 0 -10
-5 -10 -11z"/>
<path d="M12020 2415 c0 -8 5 -15 10 -15 6 0 10 7 10 15 0 8 -4 15 -10 15 -5
0 -10 -7 -10 -15z"/>
<path d="M1120 2400 c-12 -8 -10 -10 8 -10 13 0 20 4 17 10 -7 12 -6 12 -25 0z"/>
<path d="M4352 2386 c1 -10 8 -17 13 -17 15 1 12 24 -3 29 -9 3 -13 -2 -10
-12z"/>
<path d="M4260 2381 c0 -18 22 -71 30 -71 15 0 16 35 2 58 -14 22 -32 30 -32
13z"/>
<path d="M4686 2383 c-11 -11 -6 -23 9 -23 8 0 15 4 15 9 0 13 -16 22 -24 14z"/>
<path d="M100 2370 c0 -5 5 -10 10 -10 6 0 10 5 10 10 0 6 -4 10 -10 10 -5 0
-10 -4 -10 -10z"/>
<path d="M5760 2370 c0 -5 5 -10 10 -10 6 0 10 5 10 10 0 6 -4 10 -10 10 -5 0
-10 -4 -10 -10z"/>
<path d="M50 2350 c0 -5 5 -10 10 -10 6 0 10 5 10 10 0 6 -4 10 -10 10 -5 0
-10 -4 -10 -10z"/>
<path d="M1062 2348 c6 -18 28 -21 28 -4 0 9 -7 16 -16 16 -9 0 -14 -5 -12
-12z"/>
<path d="M5807 2353 c-13 -12 -7 -23 13 -23 11 0 20 7 20 15 0 15 -21 21 -33
8z"/>
<path d="M3325 2340 c-3 -5 -1 -10 4 -10 6 0 11 5 11 10 0 6 -2 10 -4 10 -3 0
-8 -4 -11 -10z"/>
<path d="M2880 2330 c0 -5 5 -10 10 -10 6 0 10 5 10 10 0 6 -4 10 -10 10 -5 0
-10 -4 -10 -10z"/>
<path d="M270 2311 c0 -11 5 -23 10 -26 6 -4 10 5 10 19 0 14 -4 26 -10 26 -5
0 -10 -9 -10 -19z"/>
<path d="M3855 2320 c-3 -5 1 -10 9 -10 9 0 16 5 16 10 0 6 -4 10 -9 10 -6 0
-13 -4 -16 -10z"/>
<path d="M1740 2290 c0 -11 5 -20 10 -20 6 0 10 9 10 20 0 11 -4 20 -10 20 -5
0 -10 -9 -10 -20z"/>
<path d="M5160 2301 c0 -6 5 -13 10 -16 6 -3 10 1 10 9 0 9 -4 16 -10 16 -5 0
-10 -4 -10 -9z"/>
<path d="M11760 2281 c0 -17 5 -31 10 -31 6 0 10 11 10 24 0 14 -4 28 -10 31
-6 4 -10 -7 -10 -24z"/>
<path d="M9900 2290 c0 -5 7 -10 15 -10 8 0 15 5 15 10 0 6 -7 10 -15 10 -8 0
-15 -4 -15 -10z"/>
<path d="M1880 2270 c0 -5 5 -10 10 -10 6 0 10 5 10 10 0 6 -4 10 -10 10 -5 0
-10 -4 -10 -10z"/>
<path d="M1050 2255 c-10 -12 -10 -15 4 -15 9 0 16 7 16 15 0 8 -2 15 -4 15
-2 0 -9 -7 -16 -15z"/>
<path d="M126 2252 c-9 -14 21 -35 40 -28 8 3 14 12 12 19 -6 15 -44 22 -52 9z"/>
<path d="M5340 2244 c0 -8 5 -12 10 -9 6 4 8 11 5 16 -9 14 -15 11 -15 -7z"/>
<path d="M280 2236 c0 -9 5 -16 10 -16 6 0 10 4 10 9 0 6 -4 13 -10 16 -5 3
-10 -1 -10 -9z"/>
<path d="M1000 2223 c0 -12 9 -27 19 -33 20 -10 51 -4 51 11 0 4 -7 6 -16 2
-11 -4 -23 2 -35 18 l-19 24 0 -22z"/>
<path d="M6946 2231 c-4 -7 -5 -15 -2 -18 9 -9 19 4 14 18 -4 11 -6 11 -12 0z"/>
<path d="M10062 2231 c2 -7 7 -12 11 -12 12 1 9 15 -3 20 -7 2 -11 -2 -8 -8z"/>
<path d="M476 2215 c-3 -8 -1 -15 4 -15 6 0 10 7 10 15 0 8 -2 15 -4 15 -2 0
-6 -7 -10 -15z"/>
<path d="M1321 2204 c0 -11 3 -14 6 -6 3 7 2 16 -1 19 -3 4 -6 -2 -5 -13z"/>
<path d="M3596 2185 c-6 -33 9 -75 26 -75 12 0 9 48 -3 56 -6 3 -9 17 -6 30 2
13 1 24 -3 24 -4 0 -11 -16 -14 -35z"/>
<path d="M3362 2188 c-19 -19 -14 -30 7 -18 26 13 31 13 31 -5 0 -8 5 -15 10
-15 13 0 12 11 -4 33 -16 20 -27 22 -44 5z"/>
<path d="M9935 2189 c-4 -6 -5 -12 -2 -15 2 -3 7 2 10 11 7 17 1 20 -8 4z"/>
<path d="M1885 2180 c3 -5 8 -10 11 -10 2 0 4 5 4 10 0 6 -5 10 -11 10 -5 0
-7 -4 -4 -10z"/>
<path d="M3931 2174 c0 -11 3 -14 6 -6 3 7 2 16 -1 19 -3 4 -6 -2 -5 -13z"/>
<path d="M5260 2180 c0 -5 5 -10 11 -10 5 0 7 5 4 10 -3 6 -8 10 -11 10 -2 0
-4 -4 -4 -10z"/>
<path d="M11190 2176 c0 -8 5 -18 10 -21 6 -3 10 3 10 14 0 12 -4 21 -10 21
-5 0 -10 -6 -10 -14z"/>
<path d="M1065 2150 c3 -5 8 -10 11 -10 2 0 4 5 4 10 0 6 -5 10 -11 10 -5 0
-7 -4 -4 -10z"/>
<path d="M4320 2100 c0 -5 7 -10 15 -10 8 0 15 5 15 10 0 6 -7 10 -15 10 -8 0
-15 -4 -15 -10z"/>
<path d="M4991 2094 c0 -11 3 -14 6 -6 3 7 2 16 -1 19 -3 4 -6 -2 -5 -13z"/>
<path d="M205 2090 c-5 -9 -4 -15 3 -18 7 -2 12 -18 12 -35 0 -23 3 -28 11
-20 9 9 8 21 -3 49 -11 26 -17 33 -23 24z"/>
<path d="M3310 2080 c0 -5 7 -10 15 -10 8 0 15 5 15 10 0 6 -7 10 -15 10 -8 0
-15 -4 -15 -10z"/>
<path d="M3550 2065 c0 -8 7 -15 15 -15 8 0 15 4 15 9 0 5 -7 11 -15 15 -9 3
-15 0 -15 -9z"/>
<path d="M4240 2054 c0 -8 5 -12 10 -9 6 4 8 11 5 16 -9 14 -15 11 -15 -7z"/>
<path d="M1715 2050 c-9 -15 -1 -23 21 -18 15 3 16 4 1 16 -11 9 -17 10 -22 2z"/>
<path d="M1763 2044 c-3 -8 -1 -20 6 -27 8 -8 11 -4 11 16 0 30 -7 35 -17 11z"/>
<path d="M2377 2020 c-3 -11 -2 -20 3 -20 12 0 21 28 11 35 -5 2 -11 -4 -14
-15z"/>
<path d="M4200 2021 c0 -6 5 -13 10 -16 6 -3 10 1 10 9 0 9 -4 16 -10 16 -5 0
-10 -4 -10 -9z"/>
<path d="M0 2010 c0 -5 9 -10 20 -10 11 0 20 5 20 10 0 6 -9 10 -20 10 -11 0
-20 -4 -20 -10z"/>
<path d="M4781 1994 c0 -11 3 -14 6 -6 3 7 2 16 -1 19 -3 4 -6 -2 -5 -13z"/>
<path d="M4262 1944 c2 -37 7 -50 21 -52 10 -2 17 3 17 12 0 9 -5 16 -11 16
-6 0 -9 14 -7 32 2 19 -2 33 -10 36 -10 3 -12 -8 -10 -44z"/>
<path d="M4360 1965 c0 -8 7 -15 16 -15 14 0 14 3 4 15 -7 8 -14 15 -16 15 -2
0 -4 -7 -4 -15z"/>
<path d="M4597 1973 c-15 -14 -6 -28 20 -30 16 0 21 2 13 7 -7 4 -16 13 -19
19 -4 6 -10 8 -14 4z"/>
<path d="M2715 1950 c-7 -12 2 -30 16 -30 5 0 9 9 9 20 0 21 -15 27 -25 10z"/>
<path d="M2350 1941 c0 -5 5 -13 10 -16 6 -3 10 -2 10 4 0 5 -4 13 -10 16 -5
3 -10 2 -10 -4z"/>
<path d="M2560 1934 c0 -9 5 -14 12 -12 18 6 21 28 4 28 -9 0 -16 -7 -16 -16z"/>
<path d="M11605 1940 c3 -5 8 -10 11 -10 2 0 4 5 4 10 0 6 -5 10 -11 10 -5 0
-7 -4 -4 -10z"/>
<path d="M7480 1895 c0 -33 4 -45 15 -45 17 0 20 26 5 35 -8 5 -7 11 0 20 12
15 6 35 -11 35 -5 0 -9 -20 -9 -45z"/>
<path d="M3520 1920 c0 -5 5 -10 10 -10 6 0 10 5 10 10 0 6 -4 10 -10 10 -5 0
-10 -4 -10 -10z"/>
<path d="M1750 1905 c14 -17 40 -20 40 -5 0 5 -7 7 -15 4 -8 -4 -15 -1 -15 5
0 6 -5 11 -11 11 -8 0 -8 -5 1 -15z"/>
<path d="M4697 1914 c-8 -8 1 -24 14 -24 5 0 9 7 9 15 0 15 -12 20 -23 9z"/>
<path d="M4947 1903 c-12 -11 -8 -23 8 -23 8 0 15 7 15 15 0 16 -12 20 -23 8z"/>
<path d="M11650 1900 c0 -5 5 -10 11 -10 5 0 7 5 4 10 -3 6 -8 10 -11 10 -2 0
-4 -4 -4 -10z"/>
<path d="M3487 1880 c-3 -11 -1 -20 4 -20 5 0 9 2 9 4 0 2 3 11 6 20 3 9 2 16
-4 16 -5 0 -12 -9 -15 -20z"/>
<path d="M9760 1869 c0 -38 24 -35 28 4 2 19 -1 27 -12 27 -11 0 -16 -10 -16
-31z"/>
<path d="M2050 1871 c0 -12 5 -21 10 -21 6 0 10 6 10 14 0 8 -4 18 -10 21 -5
3 -10 -3 -10 -14z"/>
<path d="M3417 1875 c-4 -8 -2 -17 3 -20 6 -4 10 3 10 14 0 25 -6 27 -13 6z"/>
<path d="M185 1860 c-3 -5 3 -10 14 -10 12 0 21 5 21 10 0 6 -6 10 -14 10 -8
0 -18 -4 -21 -10z"/>
<path d="M4330 1840 c0 -5 7 -10 15 -10 8 0 15 5 15 10 0 6 -7 10 -15 10 -8 0
-15 -4 -15 -10z"/>
<path d="M9865 1820 c3 -5 8 -10 11 -10 2 0 4 5 4 10 0 6 -5 10 -11 10 -5 0
-7 -4 -4 -10z"/>
<path d="M3820 1756 c0 -9 5 -16 10 -16 6 0 10 4 10 9 0 6 -4 13 -10 16 -5 3
-10 -1 -10 -9z"/>
<path d="M1986 1734 c-4 -9 -4 -19 -2 -21 8 -8 26 8 26 23 0 19 -16 18 -24 -2z"/>
<path d="M2380 1740 c0 -5 7 -10 15 -10 8 0 15 5 15 10 0 6 -7 10 -15 10 -8 0
-15 -4 -15 -10z"/>
<path d="M3670 1740 c0 -5 12 -10 28 -9 24 0 25 1 7 9 -27 12 -35 12 -35 0z"/>
<path d="M3565 1730 c-3 -5 -1 -10 4 -10 6 0 11 5 11 10 0 6 -2 10 -4 10 -3 0
-8 -4 -11 -10z"/>
<path d="M12401 1724 c0 -11 3 -14 6 -6 3 7 2 16 -1 19 -3 4 -6 -2 -5 -13z"/>
<path d="M1600 1720 c0 -5 7 -10 15 -10 8 0 15 5 15 10 0 6 -7 10 -15 10 -8 0
-15 -4 -15 -10z"/>
<path d="M2655 1720 c-3 -5 -1 -10 4 -10 6 0 11 5 11 10 0 6 -2 10 -4 10 -3 0
-8 -4 -11 -10z"/>
<path d="M2970 1714 c0 -8 5 -12 10 -9 6 3 10 10 10 16 0 5 -4 9 -10 9 -5 0
-10 -7 -10 -16z"/>
<path d="M450 1701 c0 -11 5 -23 10 -26 6 -3 10 3 10 14 0 11 -4 23 -10 26 -5
3 -10 -3 -10 -14z"/>
<path d="M5598 1713 c7 -3 16 -2 19 1 4 3 -2 6 -13 5 -11 0 -14 -3 -6 -6z"/>
<path d="M11926 1704 c-4 -9 -4 -19 -1 -22 2 -3 7 3 11 12 4 9 4 19 1 22 -2 3
-7 -3 -11 -12z"/>
<path d="M180 1690 c0 -19 3 -21 12 -12 9 9 9 15 0 24 -9 9 -12 7 -12 -12z"/>
<path d="M4540 1695 c0 -8 7 -15 15 -15 8 0 15 7 15 15 0 8 -7 15 -15 15 -8 0
-15 -7 -15 -15z"/>
<path d="M2175 1690 c-3 -5 -1 -10 4 -10 6 0 11 5 11 10 0 6 -2 10 -4 10 -3 0
-8 -4 -11 -10z"/>
<path d="M2637 1694 c-8 -8 1 -24 14 -24 5 0 9 7 9 15 0 15 -12 20 -23 9z"/>
<path d="M4620 1682 c0 -12 9 -26 20 -32 16 -8 20 -8 20 3 0 8 -9 22 -20 32
-19 18 -20 17 -20 -3z"/>
<path d="M4320 1655 c0 -23 -5 -46 -12 -53 -9 -9 -8 -12 5 -12 29 0 41 41 23
75 l-16 30 0 -40z"/>
<path d="M11375 1680 c-3 -5 1 -10 10 -10 9 0 13 5 10 10 -3 6 -8 10 -10 10
-2 0 -7 -4 -10 -10z"/>
<path d="M2570 1670 c0 -5 5 -10 10 -10 6 0 10 5 10 10 0 6 -4 10 -10 10 -5 0
-10 -4 -10 -10z"/>
<path d="M11875 1671 c-3 -5 -1 -12 5 -16 5 -3 10 1 10 9 0 18 -6 21 -15 7z"/>
<path d="M6155 1640 c-4 -6 7 -10 27 -10 25 0 29 3 18 10 -19 13 -37 13 -45 0z"/>
<path d="M820 1619 c0 -18 2 -19 15 -9 8 7 15 16 15 21 0 5 -7 9 -15 9 -9 0
-15 -9 -15 -21z"/>
<path d="M1983 1625 c-8 -22 6 -33 17 -15 13 20 12 30 0 30 -6 0 -13 -7 -17
-15z"/>
<path d="M11460 1611 c0 -33 10 -44 28 -32 10 6 10 13 1 34 -16 35 -29 34 -29
-2z"/>
<path d="M915 1620 c-3 -5 -2 -10 4 -10 5 0 13 5 16 10 3 6 2 10 -4 10 -5 0
-13 -4 -16 -10z"/>
<path d="M1524 1616 c-3 -8 -1 -23 5 -33 9 -15 10 -13 11 15 0 34 -7 42 -16
18z"/>
<path d="M1171 1604 c0 -11 3 -14 6 -6 3 7 2 16 -1 19 -3 4 -6 -2 -5 -13z"/>
<path d="M1280 1600 c0 -5 5 -10 10 -10 6 0 10 5 10 10 0 6 -4 10 -10 10 -5 0
-10 -4 -10 -10z"/>
<path d="M1647 1595 c-4 -8 -2 -17 3 -20 6 -4 10 3 10 14 0 25 -6 27 -13 6z"/>
<path d="M1730 1600 c0 -5 5 -10 10 -10 6 0 10 5 10 10 0 6 -4 10 -10 10 -5 0
-10 -4 -10 -10z"/>
<path d="M2270 1600 c0 -5 5 -10 11 -10 5 0 7 5 4 10 -3 6 -8 10 -11 10 -2 0
-4 -4 -4 -10z"/>
<path d="M4410 1600 c0 -5 5 -10 10 -10 6 0 10 5 10 10 0 6 -4 10 -10 10 -5 0
-10 -4 -10 -10z"/>
<path d="M6097 1596 c-4 -10 0 -12 14 -9 10 3 16 9 13 14 -8 13 -21 11 -27 -5z"/>
<path d="M10057 1604 c-4 -4 -7 -14 -7 -23 0 -11 3 -12 11 -4 6 6 10 16 7 23
-2 6 -7 8 -11 4z"/>
<path d="M11666 1592 c-8 -25 16 -62 41 -62 17 0 17 17 -1 27 -8 5 -19 19 -24
33 l-9 25 -7 -23z"/>
<path d="M250 1579 c0 -5 5 -7 10 -4 6 3 10 8 10 11 0 2 -4 4 -10 4 -5 0 -10
-5 -10 -11z"/>
<path d="M10350 1580 c0 -5 5 -10 10 -10 6 0 10 5 10 10 0 6 -4 10 -10 10 -5
0 -10 -4 -10 -10z"/>
<path d="M3713 1563 c-19 -7 -16 -53 2 -53 10 0 15 10 15 30 0 17 -1 30 -2 29
-2 0 -9 -3 -15 -6z"/>
<path d="M2276 1538 c-3 -13 -1 -27 4 -32 7 -7 10 1 10 22 0 37 -5 41 -14 10z"/>
<path d="M5526 1528 c-3 -7 -7 -32 -9 -56 -4 -36 -3 -43 11 -40 13 2 18 16 20
56 2 32 -1 52 -8 52 -6 0 -12 -6 -14 -12z"/>
<path d="M6560 1510 c0 -5 5 -10 11 -10 5 0 7 5 4 10 -3 6 -8 10 -11 10 -2 0
-4 -4 -4 -10z"/>
<path d="M6220 1499 c0 -5 5 -7 10 -4 6 3 10 8 10 11 0 2 -4 4 -10 4 -5 0 -10
-5 -10 -11z"/>
<path d="M525 1480 c-3 -5 1 -10 9 -10 9 0 16 5 16 10 0 6 -4 10 -9 10 -6 0
-13 -4 -16 -10z"/>
<path d="M1330 1480 c0 -5 5 -10 10 -10 6 0 10 5 10 10 0 6 -4 10 -10 10 -5 0
-10 -4 -10 -10z"/>
<path d="M1495 1480 c-3 -5 -1 -10 4 -10 6 0 11 5 11 10 0 6 -2 10 -4 10 -3 0
-8 -4 -11 -10z"/>
<path d="M5388 1463 c7 -3 16 -2 19 1 4 3 -2 6 -13 5 -11 0 -14 -3 -6 -6z"/>
<path d="M2711 1444 c0 -11 3 -14 6 -6 3 7 2 16 -1 19 -3 4 -6 -2 -5 -13z"/>
<path d="M6060 1450 c0 -5 9 -10 20 -10 11 0 20 -7 20 -15 0 -8 7 -15 15 -15
12 0 13 4 6 19 -15 27 -61 43 -61 21z"/>
<path d="M7300 1435 c0 -9 6 -12 15 -9 8 4 12 10 9 15 -8 14 -24 10 -24 -6z"/>
<path d="M91 1424 c0 -11 3 -14 6 -6 3 7 2 16 -1 19 -3 4 -6 -2 -5 -13z"/>
<path d="M1380 1410 c0 -13 7 -20 20 -20 11 0 20 4 20 10 0 5 -9 14 -20 20
-17 9 -20 8 -20 -10z"/>
<path d="M8320 1414 c0 -8 5 -12 10 -9 6 3 10 10 10 16 0 5 -4 9 -10 9 -5 0
-10 -7 -10 -16z"/>
<path d="M4540 1410 c0 -5 5 -10 10 -10 6 0 10 5 10 10 0 6 -4 10 -10 10 -5 0
-10 -4 -10 -10z"/>
<path d="M1291 1384 c0 -11 3 -14 6 -6 3 7 2 16 -1 19 -3 4 -6 -2 -5 -13z"/>
<path d="M3240 1380 c0 -5 5 -10 10 -10 6 0 10 5 10 10 0 6 -4 10 -10 10 -5 0
-10 -4 -10 -10z"/>
<path d="M28 1360 c-11 -12 -13 -22 -7 -26 13 -7 39 14 39 32 0 20 -13 17 -32
-6z"/>
<path d="M960 1360 c0 -5 5 -10 10 -10 6 0 10 5 10 10 0 6 -4 10 -10 10 -5 0
-10 -4 -10 -10z"/>
<path d="M1500 1356 c0 -8 5 -18 10 -21 6 -3 10 1 10 9 0 8 -4 18 -10 21 -5 3
-10 -1 -10 -9z"/>
<path d="M5125 1360 c-3 -5 -1 -10 4 -10 6 0 11 5 11 10 0 6 -2 10 -4 10 -3 0
-8 -4 -11 -10z"/>
<path d="M6341 1354 c0 -11 3 -14 6 -6 3 7 2 16 -1 19 -3 4 -6 -2 -5 -13z"/>
<path d="M2002 1349 c2 -7 10 -15 17 -17 8 -3 12 1 9 9 -2 7 -10 15 -17 17 -8
3 -12 -1 -9 -9z"/>
<path d="M4495 1340 c3 -5 8 -10 11 -10 2 0 4 5 4 10 0 6 -5 10 -11 10 -5 0
-7 -4 -4 -10z"/>
<path d="M1151 1318 c-10 -28 -9 -30 13 -22 17 7 23 44 6 44 -6 0 -14 -10 -19
-22z"/>
<path d="M1537 1314 c-4 -4 -7 -17 -7 -28 1 -19 1 -20 11 -3 11 19 8 43 -4 31z"/>
<path d="M34 1299 c-8 -14 11 -33 25 -25 6 4 11 11 11 16 0 13 -29 20 -36 9z"/>
<path d="M3116 1273 c9 -51 14 -54 14 -10 0 20 -5 39 -11 42 -7 5 -8 -5 -3
-32z"/>
<path d="M6369 1308 c-5 -22 -5 -67 1 -63 11 7 18 65 8 65 -4 0 -8 -1 -9 -2z"/>
<path d="M1070 1290 c-8 -5 -12 -11 -10 -14 3 -2 14 2 24 10 22 15 10 19 -14
4z"/>
<path d="M3036 1281 c-4 -7 -5 -15 -2 -18 9 -9 19 4 14 18 -4 11 -6 11 -12 0z"/>
<path d="M5222 1255 c0 -16 2 -22 5 -12 2 9 2 23 0 30 -3 6 -5 -1 -5 -18z"/>
<path d="M7625 1270 c-3 -5 -1 -10 4 -10 6 0 11 5 11 10 0 6 -2 10 -4 10 -3 0
-8 -4 -11 -10z"/>
<path d="M2105 1257 c-4 -10 -5 -21 -1 -24 10 -10 18 4 13 24 -4 17 -4 17 -12
0z"/>
<path d="M4285 1260 c3 -5 8 -10 11 -10 2 0 4 5 4 10 0 6 -5 10 -11 10 -5 0
-7 -4 -4 -10z"/>
<path d="M2050 1240 c0 -5 5 -10 11 -10 5 0 7 5 4 10 -3 6 -8 10 -11 10 -2 0
-4 -4 -4 -10z"/>
<path d="M1685 1230 c-3 -5 -1 -10 4 -10 6 0 11 5 11 10 0 6 -2 10 -4 10 -3 0
-8 -4 -11 -10z"/>
<path d="M1904 1229 c-4 -7 0 -17 8 -23 9 -6 18 -20 21 -31 3 -11 5 -2 4 19
-2 40 -19 58 -33 35z"/>
<path d="M3660 1229 c0 -5 5 -7 10 -4 6 3 10 8 10 11 0 2 -4 4 -10 4 -5 0 -10
-5 -10 -11z"/>
<path d="M10540 1229 c0 -5 5 -7 10 -4 6 3 10 8 10 11 0 2 -4 4 -10 4 -5 0
-10 -5 -10 -11z"/>
<path d="M2300 1220 c0 -5 7 -10 15 -10 8 0 15 5 15 10 0 6 -7 10 -15 10 -8 0
-15 -4 -15 -10z"/>
<path d="M1440 1210 c0 -5 5 -10 10 -10 6 0 10 5 10 10 0 6 -4 10 -10 10 -5 0
-10 -4 -10 -10z"/>
<path d="M11587 1199 c7 -7 15 -10 18 -7 3 3 -2 9 -12 12 -14 6 -15 5 -6 -5z"/>
<path d="M3957 1193 c-14 -13 -6 -23 18 -23 16 0 25 6 25 15 0 15 -31 21 -43
8z"/>
<path d="M5700 1189 c0 -5 5 -7 10 -4 6 3 10 8 10 11 0 2 -4 4 -10 4 -5 0 -10
-5 -10 -11z"/>
<path d="M7750 1156 c0 -27 4 -45 9 -41 11 6 9 70 -2 81 -4 4 -7 -14 -7 -40z"/>
<path d="M160 1164 c0 -17 22 -14 28 4 2 7 -3 12 -12 12 -9 0 -16 -7 -16 -16z"/>
<path d="M9260 1170 c0 -5 7 -10 15 -10 8 0 15 5 15 10 0 6 -7 10 -15 10 -8 0
-15 -4 -15 -10z"/>
<path d="M3030 1156 c0 -9 5 -16 10 -16 6 0 10 4 10 9 0 6 -4 13 -10 16 -5 3
-10 -1 -10 -9z"/>
<path d="M257 1146 c-6 -15 1 -26 15 -26 4 0 8 9 8 20 0 23 -15 27 -23 6z"/>
<path d="M1 1134 c0 -11 3 -14 6 -6 3 7 2 16 -1 19 -3 4 -6 -2 -5 -13z"/>
<path d="M4415 1120 c-3 -5 -1 -10 4 -10 6 0 11 5 11 10 0 6 -2 10 -4 10 -3 0
-8 -4 -11 -10z"/>
<path d="M5540 1120 c0 -5 5 -10 10 -10 6 0 10 5 10 10 0 6 -4 10 -10 10 -5 0
-10 -4 -10 -10z"/>
<path d="M100 1101 c0 -6 5 -13 10 -16 6 -3 10 1 10 9 0 9 -4 16 -10 16 -5 0
-10 -4 -10 -9z"/>
<path d="M2141 1074 c0 -11 3 -14 6 -6 3 7 2 16 -1 19 -3 4 -6 -2 -5 -13z"/>
<path d="M7740 1079 c0 -5 5 -7 10 -4 6 3 10 8 10 11 0 2 -4 4 -10 4 -5 0 -10
-5 -10 -11z"/>
<path d="M1578 1073 c7 -3 16 -2 19 1 4 3 -2 6 -13 5 -11 0 -14 -3 -6 -6z"/>
<path d="M12240 1070 c0 -6 7 -13 15 -17 24 -9 27 1 5 15 -13 8 -20 8 -20 2z"/>
<path d="M12305 1070 c-8 -12 20 -24 35 -15 5 3 10 10 10 16 0 12 -37 12 -45
-1z"/>
<path d="M235 1059 c-10 -15 1 -23 20 -15 9 3 13 10 10 16 -8 13 -22 13 -30
-1z"/>
<path d="M4992 1050 c0 -14 2 -19 5 -12 2 6 2 18 0 25 -3 6 -5 1 -5 -13z"/>
<path d="M7156 1062 c-3 -6 -1 -14 5 -17 15 -10 25 3 12 16 -7 7 -13 7 -17 1z"/>
<path d="M1995 1050 c4 -6 11 -8 16 -5 14 9 11 15 -7 15 -8 0 -12 -5 -9 -10z"/>
<path d="M6588 1053 c7 -3 16 -2 19 1 4 3 -2 6 -13 5 -11 0 -14 -3 -6 -6z"/>
<path d="M6760 1045 c0 -8 5 -15 10 -15 6 0 10 7 10 15 0 8 -4 15 -10 15 -5 0
-10 -7 -10 -15z"/>
<path d="M3684 1039 c-3 -6 -1 -16 5 -22 8 -8 11 -5 11 11 0 24 -5 28 -16 11z"/>
<path d="M470 1021 c0 -6 5 -13 10 -16 6 -3 10 1 10 9 0 9 -4 16 -10 16 -5 0
-10 -4 -10 -9z"/>
<path d="M2675 1020 c-3 -5 -1 -10 4 -10 6 0 11 5 11 10 0 6 -2 10 -4 10 -3 0
-8 -4 -11 -10z"/>
<path d="M4060 1000 c-9 -16 -8 -18 5 -14 8 4 15 12 15 20 0 20 -7 17 -20 -6z"/>
<path d="M5260 1006 c0 -9 5 -16 10 -16 6 0 10 4 10 9 0 6 -4 13 -10 16 -5 3
-10 -1 -10 -9z"/>
<path d="M4250 990 c-8 -5 -11 -12 -7 -16 4 -4 13 -2 19 4 15 15 7 24 -12 12z"/>
<path d="M2800 975 c0 -8 5 -15 10 -15 6 0 10 7 10 15 0 8 -4 15 -10 15 -5 0
-10 -7 -10 -15z"/>
<path d="M6390 970 c0 -11 2 -20 4 -20 2 0 6 9 9 20 3 11 1 20 -4 20 -5 0 -9
-9 -9 -20z"/>
<path d="M6890 980 c0 -5 5 -10 10 -10 6 0 10 5 10 10 0 6 -4 10 -10 10 -5 0
-10 -4 -10 -10z"/>
<path d="M5047 974 c-4 -4 -7 -14 -7 -23 0 -11 3 -12 11 -4 6 6 10 16 7 23 -2
6 -7 8 -11 4z"/>
<path d="M6734 955 c-6 -23 -10 -25 -69 -25 -96 0 -103 -36 -9 -38 25 -1 49
-4 54 -7 14 -8 11 -703 -2 -712 -7 -3 -35 -6 -64 -5 -29 1 -56 -3 -59 -7 -6
-11 42 -44 54 -37 4 3 113 8 241 10 128 3 235 8 238 10 2 3 6 57 8 121 3 64 5
121 7 128 1 6 -7 13 -19 15 -19 3 -22 -3 -26 -61 -5 -62 -21 -104 -45 -120 -7
-4 -13 -15 -13 -23 0 -8 -12 -19 -27 -25 -28 -11 -148 -17 -158 -8 -2 3 -6 84
-7 180 l-3 174 35 -3 c40 -3 86 -46 95 -87 3 -14 7 -36 10 -50 3 -14 10 -25
15 -25 5 0 10 64 10 153 1 83 2 165 3 181 1 16 -4 31 -10 33 -15 5 -19 -5 -28
-71 -8 -60 -48 -106 -93 -106 l-29 0 -5 120 c-3 66 -3 142 0 170 l5 50 58 0
c32 0 69 -5 82 -11 39 -18 106 -147 107 -206 0 -24 18 -32 25 -10 2 6 1 66 -3
132 l-7 120 -50 3 c-27 1 -61 3 -75 4 -14 1 -50 0 -80 -1 -30 -2 -76 -2 -102
-2 -47 1 -47 1 -41 31 7 37 -14 41 -23 5z"/>
<path d="M6855 971 c-3 -5 -1 -12 5 -16 5 -3 10 1 10 9 0 18 -6 21 -15 7z"/>
<path d="M6340 954 c0 -8 5 -12 10 -9 6 4 8 11 5 16 -9 14 -15 11 -15 -7z"/>
<path d="M960 950 c0 -5 5 -10 10 -10 6 0 10 5 10 10 0 6 -4 10 -10 10 -5 0
-10 -4 -10 -10z"/>
<path d="M3115 950 c-11 -18 9 -31 56 -36 98 -11 91 -1 85 -122 -9 -162 -9
-174 2 -361 5 -95 7 -181 5 -191 -6 -23 -45 -43 -88 -44 -44 -2 -65 -20 -39
-34 27 -14 271 -9 286 6 13 13 12 13 -46 17 -18 1 -39 13 -53 29 -19 23 -23
39 -24 99 0 40 -2 108 -4 152 -11 242 -13 378 -5 365 4 -8 18 -58 29 -110 11
-52 30 -133 40 -180 11 -47 29 -127 41 -178 11 -51 25 -104 31 -119 5 -14 10
-47 11 -74 1 -59 11 -63 26 -11 6 20 18 60 26 89 9 29 21 78 26 110 5 32 18
96 29 143 41 170 61 265 61 288 0 12 3 22 8 22 12 0 8 -588 -5 -601 -5 -5 -32
-13 -58 -17 -50 -7 -75 -31 -33 -33 25 -1 308 0 321 0 4 1 7 8 7 16 0 16 -14
19 -71 16 -46 -3 -44 -8 -47 223 -1 99 -4 188 -8 198 -3 10 -2 18 3 18 4 0 6
52 4 115 -5 160 -3 165 60 165 47 0 50 2 47 23 -2 18 -9 22 -33 20 -16 -1 -66
-3 -110 -5 l-80 -3 -6 -50 c-3 -27 -11 -70 -17 -95 -7 -25 -24 -94 -38 -155
-14 -60 -30 -131 -37 -157 -6 -27 -14 -48 -17 -48 -8 0 -89 328 -99 400 -15
102 -8 96 -129 104 -59 4 -117 9 -128 12 -12 3 -25 0 -29 -6z"/>
<path d="M1870 940 c0 -5 5 -10 10 -10 6 0 10 5 10 10 0 6 -4 10 -10 10 -5 0
-10 -4 -10 -10z"/>
<path d="M2745 940 c-3 -5 0 -19 8 -31 17 -24 29 -13 20 19 -6 23 -18 28 -28
12z"/>
<path d="M4287 936 c-3 -8 -4 -30 -1 -48 4 -21 -2 -56 -15 -93 -12 -33 -21
-69 -21 -80 0 -12 -10 -48 -23 -81 -13 -32 -31 -89 -41 -127 -10 -37 -22 -70
-27 -73 -5 -3 -9 -20 -9 -39 0 -19 -4 -37 -10 -40 -5 -3 -10 -21 -10 -38 0
-18 -10 -53 -22 -79 -23 -48 -41 -58 -109 -58 -21 0 -29 -5 -29 -17 0 -16 12
-18 135 -16 74 1 139 4 145 8 18 11 0 25 -35 25 -56 0 -65 8 -65 56 0 24 7 71
16 103 l17 59 47 4 c51 3 116 -5 127 -15 9 -10 43 -190 37 -199 -3 -4 -15 -8
-27 -8 -33 0 -67 -11 -67 -21 0 -5 20 -9 45 -9 33 0 45 -4 45 -15 0 -8 5 -15
10 -15 6 0 10 7 10 15 0 22 56 20 69 -2 9 -17 10 -17 29 0 18 16 52 15 52 -3
0 -4 15 -4 33 -1 23 5 32 12 32 26 0 17 -7 20 -47 20 -26 1 -52 5 -58 11 -5 5
-12 30 -14 54 -3 25 -14 72 -25 105 -10 33 -28 98 -41 145 -12 47 -28 106 -36
132 -8 26 -14 57 -14 70 0 34 -49 209 -66 236 -17 25 -29 28 -37 8z m22 -371
c5 -44 14 -81 20 -83 16 -5 13 -28 -4 -42 -14 -12 -112 -16 -123 -6 -6 7 9 60
44 159 34 96 48 90 63 -28z"/>
<path d="M4733 938 c-9 -16 27 -38 52 -32 27 7 75 -30 75 -59 0 -39 11 -65 29
-70 10 -2 25 -22 35 -43 18 -39 42 -92 102 -219 89 -189 127 -272 136 -288 5
-10 6 -27 3 -37 -8 -24 39 -80 54 -65 6 6 11 160 14 370 2 198 7 368 11 378 5
9 20 20 35 23 38 8 56 19 56 35 0 9 -10 13 -30 11 -16 -1 -75 -3 -130 -5 -88
-2 -100 -4 -103 -20 -3 -14 2 -18 20 -17 95 8 110 -14 110 -152 -1 -61 -6
-105 -13 -114 -8 -10 -8 -18 -1 -26 7 -8 7 -29 2 -58 -5 -26 -5 -49 1 -54 5
-6 9 -19 9 -30 -1 -19 -3 -18 -25 9 -14 17 -25 39 -26 50 0 11 -9 34 -19 50
-25 39 -48 81 -99 185 -69 141 -77 155 -102 166 -33 16 -187 25 -196 12z"/>
<path d="M5466 943 c-3 -3 -6 -14 -6 -24 0 -15 10 -19 58 -21 l57 -3 6 -75 c3
-41 3 -84 -1 -96 -5 -11 -5 -39 0 -62 5 -30 3 -47 -7 -62 -11 -16 -12 -28 -5
-48 10 -25 14 -334 5 -358 -2 -6 -27 -14 -55 -17 -49 -6 -90 -26 -57 -28 76
-4 341 -3 344 1 2 3 0 12 -4 19 -6 8 -23 11 -54 8 -30 -3 -47 -1 -50 7 -7 18
-5 643 2 679 6 30 10 32 56 37 35 3 50 9 50 19 0 12 -27 15 -155 16 -85 0
-160 4 -166 7 -6 4 -14 5 -18 1z"/>
<path d="M4405 930 c-3 -5 -2 -10 4 -10 5 0 13 5 16 10 3 6 2 10 -4 10 -5 0
-13 -4 -16 -10z"/>
<path d="M5851 924 c0 -11 3 -14 6 -6 3 7 2 16 -1 19 -3 4 -6 -2 -5 -13z"/>
<path d="M7646 933 c-3 -3 -6 -19 -6 -34 0 -40 -22 -42 -71 -6 -36 26 -52 31
-107 33 -70 3 -122 -15 -122 -41 0 -8 -6 -15 -13 -15 -8 0 -14 -13 -14 -32 -1
-18 -4 -56 -8 -85 -10 -67 18 -151 53 -164 13 -5 26 -18 29 -29 3 -11 11 -20
18 -20 31 0 225 -147 225 -170 0 -10 7 -23 15 -30 17 -14 20 -56 6 -65 -6 -3
-10 -13 -10 -23 0 -9 -1 -26 -3 -36 -6 -36 17 -26 47 21 26 42 30 56 29 123 0
44 -5 85 -14 100 -20 37 -64 90 -74 90 -5 0 -23 10 -40 23 -17 13 -45 29 -62
36 -42 17 -150 119 -164 155 -13 34 -6 60 27 104 22 29 29 32 78 32 43 0 60
-5 84 -25 48 -41 80 -108 87 -183 7 -86 12 -101 24 -82 10 17 11 318 0 325 -4
2 -10 2 -14 -2z"/>
<path d="M247 923 c-4 -3 -7 -11 -7 -17 0 -6 5 -5 12 2 6 6 9 14 7 17 -3 3 -9
2 -12 -2z"/>
<path d="M4216 915 c4 -8 10 -15 15 -15 5 0 9 7 9 15 0 8 -7 15 -15 15 -9 0
-12 -6 -9 -15z"/>
<path d="M5940 913 c0 -9 15 -13 48 -13 81 0 82 -1 83 -194 0 -96 -4 -173 -9
-178 -6 -6 -7 -22 -1 -42 6 -17 9 -89 7 -160 l-2 -129 -30 -18 c-20 -12 -35
-15 -46 -9 -20 11 -45 -3 -35 -19 5 -8 41 -12 113 -11 59 1 133 1 166 0 54 -1
89 11 73 26 -3 4 -30 7 -59 8 l-53 1 -7 40 c-11 61 -9 303 2 310 5 3 26 3 45
-1 47 -9 85 -62 85 -120 0 -45 24 -80 33 -47 3 10 4 34 3 53 -1 19 -3 99 -4
178 -2 138 -12 174 -27 96 -9 -50 -26 -74 -52 -74 -18 0 -23 -6 -23 -24 0 -28
-16 -37 -47 -25 -22 8 -23 12 -23 162 0 106 4 157 12 165 18 18 99 15 130 -6
34 -22 88 -90 88 -110 0 -15 14 -64 31 -109 18 -49 25 -17 23 113 -1 74 -4
137 -5 139 -2 2 -120 5 -262 7 -206 3 -257 1 -257 -9z"/>
<path d="M8740 921 c-8 -5 -39 -19 -68 -32 -45 -19 -54 -28 -64 -61 -6 -21
-17 -43 -25 -49 -7 -6 -13 -21 -13 -33 0 -11 -7 -30 -15 -40 -18 -24 -42 -105
-50 -171 -10 -74 44 -252 96 -316 57 -71 77 -88 122 -102 56 -19 91 -8 142 41
56 54 74 82 119 194 37 92 28 303 -16 375 -13 21 -30 51 -38 67 -21 41 -81
103 -107 111 -32 9 -29 -3 12 -45 58 -60 68 -117 62 -365 -6 -241 -18 -299
-66 -328 -34 -20 -98 -25 -126 -9 -11 5 -29 20 -40 32 -37 41 -50 252 -30 509
7 94 11 107 39 145 24 31 42 43 74 50 23 6 41 15 39 20 -5 14 -28 17 -47 7z"/>
<path d="M7854 908 c-3 -5 0 -15 6 -23 9 -11 11 -52 9 -140 -4 -140 9 -170 27
-60 20 123 70 205 125 205 30 0 46 -14 29 -25 -8 -5 -8 -11 0 -20 12 -15 12
-323 0 -449 -4 -39 -3 -76 1 -81 4 -6 7 -24 5 -40 -2 -17 -4 -46 -5 -65 -1
-31 -5 -36 -35 -46 -19 -6 -41 -7 -49 -2 -19 10 -49 -1 -44 -16 2 -6 21 -11
43 -12 134 -3 311 -6 322 -5 20 2 14 21 -7 21 -11 0 -23 5 -27 11 -4 6 -20 8
-40 4 -31 -5 -35 -3 -45 22 -7 18 -10 143 -8 356 2 323 3 329 23 337 27 9 44
3 51 -20 3 -10 14 -20 24 -23 30 -8 54 -65 65 -157 9 -69 14 -85 29 -88 18 -4
18 3 12 120 -3 67 -7 139 -8 158 l-2 35 -125 2 c-69 1 -180 4 -248 6 -67 2
-125 0 -128 -5z"/>
<path d="M470 900 c0 -5 5 -10 10 -10 6 0 10 5 10 10 0 6 -4 10 -10 10 -5 0
-10 -4 -10 -10z"/>
<path d="M811 884 c0 -11 3 -14 6 -6 3 7 2 16 -1 19 -3 4 -6 -2 -5 -13z"/>
<path d="M7180 886 c0 -22 17 -28 24 -10 9 22 8 24 -9 24 -8 0 -15 -6 -15 -14z"/>
<path d="M7736 893 c-11 -11 -6 -23 9 -23 8 0 15 4 15 9 0 13 -16 22 -24 14z"/>
<path d="M9676 891 c-4 -7 -5 -15 -2 -18 9 -9 19 4 14 18 -4 11 -6 11 -12 0z"/>
<path d="M210 883 c1 -18 18 -35 24 -24 4 6 4 16 1 21 -7 12 -25 13 -25 3z"/>
<path d="M3875 880 c-3 -5 -1 -10 4 -10 6 0 11 5 11 10 0 6 -2 10 -4 10 -3 0
-8 -4 -11 -10z"/>
<path d="M1561 854 c0 -11 3 -14 6 -6 3 7 2 16 -1 19 -3 4 -6 -2 -5 -13z"/>
<path d="M1580 856 c0 -22 17 -28 24 -10 9 22 8 24 -9 24 -8 0 -15 -6 -15 -14z"/>
<path d="M1960 860 c0 -5 5 -10 10 -10 6 0 10 5 10 10 0 6 -4 10 -10 10 -5 0
-10 -4 -10 -10z"/>
<path d="M8510 849 c0 -11 5 -17 10 -14 6 3 10 13 10 21 0 8 -4 14 -10 14 -5
0 -10 -9 -10 -21z"/>
<path d="M1914 849 c-3 -6 -1 -16 5 -22 8 -8 11 -5 11 11 0 24 -5 28 -16 11z"/>
<path d="M1775 817 c-4 -10 -5 -21 -1 -24 10 -10 18 4 13 24 -4 17 -4 17 -12
0z"/>
<path d="M4720 771 c0 -12 5 -21 10 -21 6 0 10 6 10 14 0 8 -4 18 -10 21 -5 3
-10 -3 -10 -14z"/>
<path d="M4868 614 c-3 -98 -9 -159 -16 -166 -15 -15 -16 -48 -1 -48 6 0 9
-31 7 -86 -3 -84 -4 -87 -34 -110 -20 -16 -45 -24 -70 -24 -36 -1 -38 -2 -20
-15 25 -19 277 -17 284 3 2 8 -9 12 -36 12 -28 0 -47 7 -66 25 l-26 24 0 265
c0 146 -4 267 -9 270 -4 3 -10 -64 -13 -150z"/>
<path d="M171 751 c-10 -7 -10 -10 -1 -16 6 -4 16 -3 22 3 13 13 -4 23 -21 13z"/>
<path d="M22 739 c2 -6 8 -10 13 -10 5 0 11 4 13 10 2 6 -4 11 -13 11 -9 0
-15 -5 -13 -11z"/>
<path d="M340 734 c0 -8 5 -12 10 -9 6 3 10 10 10 16 0 5 -4 9 -10 9 -5 0 -10
-7 -10 -16z"/>
<path d="M640 740 c0 -5 5 -10 10 -10 6 0 10 5 10 10 0 6 -4 10 -10 10 -5 0
-10 -4 -10 -10z"/>
<path d="M780 740 c0 -5 5 -10 11 -10 5 0 7 5 4 10 -3 6 -8 10 -11 10 -2 0 -4
-4 -4 -10z"/>
<path d="M11910 740 c0 -5 5 -10 10 -10 6 0 10 5 10 10 0 6 -4 10 -10 10 -5 0
-10 -4 -10 -10z"/>
<path d="M100 720 c0 -19 3 -21 12 -12 9 9 9 15 0 24 -9 9 -12 7 -12 -12z"/>
<path d="M1814 695 c-11 -17 -14 -29 -7 -36 7 -7 14 0 23 21 16 40 7 49 -16
15z"/>
<path d="M4730 705 c0 -8 5 -15 10 -15 6 0 10 7 10 15 0 8 -4 15 -10 15 -5 0
-10 -7 -10 -15z"/>
<path d="M2670 699 c0 -5 5 -7 10 -4 6 3 10 8 10 11 0 2 -4 4 -10 4 -5 0 -10
-5 -10 -11z"/>
<path d="M1200 691 c0 -6 5 -13 10 -16 6 -3 10 1 10 9 0 9 -4 16 -10 16 -5 0
-10 -4 -10 -9z"/>
<path d="M4134 669 c-3 -5 6 -9 20 -9 31 0 34 6 6 13 -11 3 -23 1 -26 -4z"/>
<path d="M31 630 c0 -33 1 -34 10 -11 6 16 6 28 -1 35 -7 7 -10 -1 -9 -24z"/>
<path d="M3180 630 c0 -5 5 -10 11 -10 5 0 7 5 4 10 -3 6 -8 10 -11 10 -2 0
-4 -4 -4 -10z"/>
<path d="M3895 629 c-10 -15 3 -25 16 -12 7 7 7 13 1 17 -6 3 -14 1 -17 -5z"/>
<path d="M8286 631 c-4 -7 -5 -15 -2 -18 9 -9 19 4 14 18 -4 11 -6 11 -12 0z"/>
<path d="M4490 620 c0 -5 5 -10 11 -10 5 0 7 5 4 10 -3 6 -8 10 -11 10 -2 0
-4 -4 -4 -10z"/>
<path d="M5250 621 c0 -5 7 -12 16 -15 22 -9 24 -8 24 9 0 8 -9 15 -20 15 -11
0 -20 -4 -20 -9z"/>
<path d="M11980 616 c0 -8 4 -17 9 -20 5 -4 7 3 4 14 -6 23 -13 26 -13 6z"/>
<path d="M2860 585 c0 -8 7 -15 15 -15 8 0 15 7 15 15 0 8 -7 15 -15 15 -8 0
-15 -7 -15 -15z"/>
<path d="M1780 574 c0 -8 5 -12 10 -9 6 4 8 11 5 16 -9 14 -15 11 -15 -7z"/>
<path d="M4610 570 c0 -13 5 -20 13 -17 6 2 12 10 12 17 0 7 -6 15 -12 18 -8
2 -13 -5 -13 -18z"/>
<path d="M7300 575 c0 -8 5 -15 10 -15 6 0 10 7 10 15 0 8 -4 15 -10 15 -5 0
-10 -7 -10 -15z"/>
<path d="M7860 546 c0 -8 5 -18 10 -21 6 -3 10 3 10 14 0 12 -4 21 -10 21 -5
0 -10 -6 -10 -14z"/>
<path d="M5280 540 c0 -5 5 -10 10 -10 6 0 10 5 10 10 0 6 -4 10 -10 10 -5 0
-10 -4 -10 -10z"/>
<path d="M22 505 c-10 -21 -9 -25 3 -25 9 0 15 10 15 25 0 14 -2 25 -3 25 -2
0 -9 -11 -15 -25z"/>
<path d="M4700 520 c0 -5 5 -10 10 -10 6 0 10 5 10 10 0 6 -4 10 -10 10 -5 0
-10 -4 -10 -10z"/>
<path d="M7270 520 c0 -5 7 -10 16 -10 14 0 15 -22 13 -184 -3 -174 0 -212 16
-187 3 6 1 11 -5 11 -6 0 -5 11 5 30 18 35 24 36 56 11 50 -39 101 -63 112
-52 8 8 6 11 -7 11 -27 0 -114 95 -125 138 -6 21 -14 78 -17 127 -5 64 -12 93
-23 102 -20 15 -41 17 -41 3z"/>
<path d="M12295 520 c-3 -5 1 -10 10 -10 9 0 13 5 10 10 -3 6 -8 10 -10 10 -2
0 -7 -4 -10 -10z"/>
<path d="M1536 505 c4 -8 8 -15 10 -15 2 0 4 7 4 15 0 8 -4 15 -10 15 -5 0 -7
-7 -4 -15z"/>
<path d="M5300 470 c0 -5 5 -10 10 -10 6 0 10 5 10 10 0 6 -4 10 -10 10 -5 0
-10 -4 -10 -10z"/>
<path d="M436 461 c-4 -5 -2 -12 3 -15 5 -4 12 -2 15 3 4 5 2 12 -3 15 -5 4
-12 2 -15 -3z"/>
<path d="M2980 456 c0 -7 7 -19 15 -26 12 -10 16 -9 21 3 3 9 3 21 -1 27 -9
15 -35 12 -35 -4z"/>
<path d="M3580 434 c0 -16 5 -24 13 -22 18 7 20 35 2 41 -11 5 -15 0 -15 -19z"/>
<path d="M7050 450 c0 -5 5 -10 11 -10 5 0 7 5 4 10 -3 6 -8 10 -11 10 -2 0
-4 -4 -4 -10z"/>
<path d="M66 435 c-3 -8 -1 -15 4 -15 6 0 10 7 10 15 0 8 -2 15 -4 15 -2 0 -6
-7 -10 -15z"/>
<path d="M3056 434 c-3 -9 -3 -20 0 -25 8 -13 34 9 34 27 0 19 -26 18 -34 -2z"/>
<path d="M376 421 c-4 -7 -5 -15 -2 -18 9 -9 19 4 14 18 -4 11 -6 11 -12 0z"/>
<path d="M5805 410 c-4 -6 -3 -16 3 -22 6 -6 12 -6 17 2 4 6 3 16 -3 22 -6 6
-12 6 -17 -2z"/>
<path d="M1541 394 c0 -11 3 -14 6 -6 3 7 2 16 -1 19 -3 4 -6 -2 -5 -13z"/>
<path d="M2520 400 c0 -5 5 -10 11 -10 5 0 7 5 4 10 -3 6 -8 10 -11 10 -2 0
-4 -4 -4 -10z"/>
<path d="M3935 400 c-3 -5 -1 -10 4 -10 6 0 11 5 11 10 0 6 -2 10 -4 10 -3 0
-8 -4 -11 -10z"/>
<path d="M5320 400 c0 -5 5 -10 10 -10 6 0 10 5 10 10 0 6 -4 10 -10 10 -5 0
-10 -4 -10 -10z"/>
<path d="M2770 365 c0 -8 9 -19 19 -25 30 -15 33 -12 15 15 -18 28 -34 33 -34
10z"/>
<path d="M3355 360 c-3 -5 -1 -10 4 -10 6 0 11 5 11 10 0 6 -2 10 -4 10 -3 0
-8 -4 -11 -10z"/>
<path d="M420 330 c0 -5 5 -10 10 -10 6 0 10 5 10 10 0 6 -4 10 -10 10 -5 0
-10 -4 -10 -10z"/>
<path d="M2740 321 c0 -20 17 -37 27 -28 7 8 -7 47 -18 47 -5 0 -9 -9 -9 -19z"/>
<path d="M336 313 c-3 -10 -9 -24 -12 -30 -3 -7 -1 -13 4 -13 5 0 12 8 16 18
3 9 9 23 12 30 3 6 1 12 -4 12 -5 0 -12 -8 -16 -17z"/>
<path d="M8192 305 c0 -16 2 -22 5 -12 2 9 2 23 0 30 -3 6 -5 -1 -5 -18z"/>
<path d="M2760 270 c0 -5 5 -10 11 -10 5 0 7 5 4 10 -3 6 -8 10 -11 10 -2 0
-4 -4 -4 -10z"/>
<path d="M4780 264 c0 -8 5 -12 10 -9 6 3 10 10 10 16 0 5 -4 9 -10 9 -5 0
-10 -7 -10 -16z"/>
<path d="M1160 260 c0 -5 5 -10 10 -10 6 0 10 5 10 10 0 6 -4 10 -10 10 -5 0
-10 -4 -10 -10z"/>
<path d="M2140 259 c0 -5 5 -7 10 -4 6 3 10 8 10 11 0 2 -4 4 -10 4 -5 0 -10
-5 -10 -11z"/>
<path d="M3811 254 c0 -11 3 -14 6 -6 3 7 2 16 -1 19 -3 4 -6 -2 -5 -13z"/>
<path d="M5890 255 c0 -8 5 -15 10 -15 6 0 10 7 10 15 0 8 -4 15 -10 15 -5 0
-10 -7 -10 -15z"/>
<path d="M9125 249 c-9 -26 -9 -105 0 -119 10 -16 52 -12 59 6 10 27 6 110 -6
122 -19 19 -46 14 -53 -9z"/>
<path d="M11870 260 c0 -5 5 -10 10 -10 6 0 10 5 10 10 0 6 -4 10 -10 10 -5 0
-10 -4 -10 -10z"/>
<path d="M302 235 c0 -16 2 -22 5 -12 2 9 2 23 0 30 -3 6 -5 -1 -5 -18z"/>
<path d="M6930 246 c0 -9 5 -16 10 -16 6 0 10 4 10 9 0 6 -4 13 -10 16 -5 3
-10 -1 -10 -9z"/>
<path d="M1926 222 c-4 -13 -5 -26 -2 -29 10 -11 18 4 14 29 l-4 23 -8 -23z"/>
<path d="M2312 200 c0 -14 2 -19 5 -12 2 6 2 18 0 25 -3 6 -5 1 -5 -13z"/>
<path d="M2565 211 c-10 -17 11 -21 31 -6 18 14 18 14 -3 15 -12 0 -24 -4 -28
-9z"/>
<path d="M170 200 c0 -5 5 -10 10 -10 6 0 10 5 10 10 0 6 -4 10 -10 10 -5 0
-10 -4 -10 -10z"/>
<path d="M2860 185 c0 -8 5 -15 10 -15 6 0 10 7 10 15 0 8 -4 15 -10 15 -5 0
-10 -7 -10 -15z"/>
<path d="M9451 184 c0 -11 3 -14 6 -6 3 7 2 16 -1 19 -3 4 -6 -2 -5 -13z"/>
<path d="M3932 170 c0 -14 2 -19 5 -12 2 6 2 18 0 25 -3 6 -5 1 -5 -13z"/>
<path d="M760 164 c0 -8 5 -12 10 -9 6 3 10 10 10 16 0 5 -4 9 -10 9 -5 0 -10
-7 -10 -16z"/>
<path d="M6400 160 c0 -5 5 -10 10 -10 6 0 10 5 10 10 0 6 -4 10 -10 10 -5 0
-10 -4 -10 -10z"/>
<path d="M2240 150 c0 -5 5 -10 10 -10 6 0 10 5 10 10 0 6 -4 10 -10 10 -5 0
-10 -4 -10 -10z"/>
<path d="M2752 148 c-17 -17 -15 -35 4 -42 23 -9 24 -8 24 12 0 29 -14 44 -28
30z"/>
<path d="M7535 150 c-8 -13 15 -24 27 -12 6 6 4 11 -6 15 -8 3 -18 2 -21 -3z"/>
<path d="M5340 129 c0 -14 7 -34 15 -45 14 -18 15 -17 9 11 -10 46 -23 65 -24
34z"/>
<path d="M1000 110 c0 -19 3 -21 12 -12 9 9 9 15 0 24 -9 9 -12 7 -12 -12z"/>
<path d="M1690 110 c0 -5 7 -10 16 -10 8 0 12 5 9 10 -3 6 -10 10 -16 10 -5 0
-9 -4 -9 -10z"/>
<path d="M3290 100 c0 -5 7 -10 15 -10 8 0 15 5 15 10 0 6 -7 10 -15 10 -8 0
-15 -4 -15 -10z"/>
<path d="M4137 103 c-4 -3 -7 -11 -7 -17 0 -6 5 -5 12 2 6 6 9 14 7 17 -3 3
-9 2 -12 -2z"/>
<path d="M6060 100 c0 -5 5 -10 10 -10 6 0 10 5 10 10 0 6 -4 10 -10 10 -5 0
-10 -4 -10 -10z"/>
<path d="M2100 86 c0 -25 12 -46 26 -46 21 0 17 33 -6 48 -16 10 -20 10 -20
-2z"/>
<path d="M3840 91 c0 -5 5 -13 10 -16 6 -3 10 -2 10 4 0 5 -4 13 -10 16 -5 3
-10 2 -10 -4z"/>
<path d="M5380 90 c0 -5 7 -10 15 -10 8 0 15 5 15 10 0 6 -7 10 -15 10 -8 0
-15 -4 -15 -10z"/>
<path d="M3925 71 c-3 -5 -1 -12 5 -16 5 -3 10 1 10 9 0 18 -6 21 -15 7z"/>
<path d="M8352 68 c6 -18 28 -21 28 -4 0 9 -7 16 -16 16 -9 0 -14 -5 -12 -12z"/>
<path d="M3760 60 c0 -5 7 -10 15 -10 8 0 15 5 15 10 0 6 -7 10 -15 10 -8 0
-15 -4 -15 -10z"/>
<path d="M5250 61 c0 -5 5 -13 10 -16 6 -3 10 -2 10 4 0 5 -4 13 -10 16 -5 3
-10 2 -10 -4z"/>
<path d="M3376 53 c-11 -11 -6 -23 9 -23 8 0 15 4 15 9 0 13 -16 22 -24 14z"/>
<path d="M1900 35 c0 -16 23 -26 38 -16 6 4 1 11 -14 18 -19 9 -24 8 -24 -2z"/>
<path d="M4100 41 c0 -6 5 -13 10 -16 6 -3 10 1 10 9 0 9 -4 16 -10 16 -5 0
-10 -4 -10 -9z"/>
<path d="M11607 23 c-10 -9 -9 -23 2 -23 5 0 11 7 15 15 5 15 -5 20 -17 8z"/>
<path d="M3305 10 c-3 -5 3 -10 15 -10 12 0 18 5 15 10 -3 6 -10 10 -15 10 -5
0 -12 -4 -15 -10z"/>
<path d="M2068 3 c7 -3 16 -2 19 1 4 3 -2 6 -13 5 -11 0 -14 -3 -6 -6z"/>
<path d="M12038 3 c6 -2 18 -2 25 0 6 3 1 5 -13 5 -14 0 -19 -2 -12 -5z"/>
</g>
</svg>
