<?xml version="1.0" standalone="no"?>
<!DOCTYPE svg PUBLIC "-//W3C//DTD SVG 20010904//EN"
 "http://www.w3.org/TR/2001/REC-SVG-20010904/DTD/svg10.dtd">
<svg version="1.0" xmlns="http://www.w3.org/2000/svg"
 width="900.000000pt" height="900.000000pt" viewBox="0 0 900.000000 900.000000"
 preserveAspectRatio="xMidYMid meet">
<metadata>
Created by potrace 1.11, written by Peter Selinger 2001-2013
</metadata>
<g transform="translate(0.000000,900.000000) scale(0.100000,-0.100000)"
fill="#000000" stroke="none">
<path d="M0 4500 l0 -4500 4500 0 4500 0 0 4500 0 4500 -4500 0 -4500 0 0
-4500z m4072 2094 c1 -36 1 -70 -2 -75 -3 -5 -116 -10 -250 -11 l-245 -3 -3
-923 -2 -922 930 2 930 3 0 914 c0 502 -3 917 -6 922 -3 5 -115 9 -249 9 -150
0 -245 4 -247 10 -1 5 -1 39 0 75 l4 65 819 0 819 0 0 -75 0 -75 -247 -2 -248
-3 -3 -2017 -2 -2018 250 0 250 0 0 -75 0 -75 -820 0 c-451 0 -820 3 -820 8
-1 4 -2 36 -2 72 l-2 65 252 3 252 2 0 995 0 995 -930 0 -930 0 2 -992 3 -993
248 -5 c136 -3 247 -8 247 -12 0 -5 0 -37 0 -73 l0 -65 -820 0 -820 0 0 75 0
75 250 0 250 0 -2 2018 -3 2017 -247 3 -248 2 0 74 c0 40 2 75 4 77 2 2 371 3
819 1 l815 -2 4 -66z"/>
</g>
</svg>
