<?xml version="1.0" standalone="no"?>
<!DOCTYPE svg PUBLIC "-//W3C//DTD SVG 20010904//EN"
 "http://www.w3.org/TR/2001/REC-SVG-20010904/DTD/svg10.dtd">
<svg version="1.0" xmlns="http://www.w3.org/2000/svg"
 width="108.000000pt" height="108.000000pt" viewBox="0 0 108.000000 108.000000"
 preserveAspectRatio="xMidYMid meet">
<metadata>
Created by potrace 1.11, written by Peter Selinger 2001-2013
</metadata>
<g transform="translate(0.000000,108.000000) scale(0.100000,-0.100000)"
fill="#000000" stroke="none">
<path d="M330 970 c0 -18 -7 -20 -60 -20 l-60 0 0 -40 c0 -39 -1 -40 -35 -40
l-35 0 0 -55 c0 -48 -2 -55 -20 -55 -19 0 -20 -7 -20 -230 0 -223 1 -230 20
-230 18 0 20 -7 20 -55 l0 -55 35 0 c34 0 35 -1 35 -40 l0 -40 60 0 c53 0 60
-2 60 -20 0 -19 7 -20 210 -20 203 0 210 1 210 20 0 18 7 20 55 20 l55 0 0 40
c0 33 3 40 20 40 18 0 20 7 20 55 l0 55 40 0 40 0 0 230 0 230 -40 0 -40 0 0
55 c0 48 -2 55 -20 55 -17 0 -20 7 -20 40 l0 40 -55 0 c-48 0 -55 2 -55 20 0
19 -7 20 -210 20 -203 0 -210 -1 -210 -20z m-40 -155 c0 -11 11 -15 40 -15 29
0 40 4 40 15 0 8 9 15 20 15 11 0 20 -7 20 -15 0 -8 7 -15 15 -15 8 0 15 -9
15 -20 0 -16 -7 -20 -35 -20 l-35 0 0 -75 c0 -68 2 -75 20 -75 13 0 20 -7 20
-20 0 -11 7 -20 15 -20 8 0 15 9 15 20 0 19 7 20 115 20 l115 0 0 75 0 75 -35
0 c-28 0 -35 4 -35 20 0 11 7 20 15 20 8 0 15 7 15 15 0 8 9 15 20 15 11 0 20
-7 20 -15 0 -8 9 -15 20 -15 11 0 20 7 20 15 0 8 9 15 20 15 11 0 20 -7 20
-15 0 -8 9 -15 20 -15 11 0 20 7 20 15 0 8 7 15 15 15 8 0 15 -7 15 -15 0 -8
9 -15 20 -15 13 0 20 -7 20 -20 0 -16 -7 -20 -35 -20 l-35 0 0 -230 c0 -198 2
-230 15 -230 10 0 15 -11 15 -35 0 -24 -5 -35 -15 -35 -8 0 -15 7 -15 15 0 8
-9 15 -20 15 -11 0 -20 -7 -20 -15 0 -8 -9 -15 -20 -15 -11 0 -20 7 -20 15 0
8 -9 15 -20 15 -11 0 -20 -7 -20 -15 0 -8 -9 -15 -20 -15 -11 0 -20 7 -20 15
0 8 -7 15 -15 15 -8 0 -15 9 -15 20 0 16 7 20 35 20 l35 0 0 115 0 115 -130 0
c-123 0 -130 -1 -130 -20 0 -13 -7 -20 -20 -20 -19 0 -20 -7 -20 -95 l0 -95
35 0 c28 0 35 -4 35 -20 0 -11 -7 -20 -15 -20 -8 0 -15 -7 -15 -15 0 -8 -9
-15 -20 -15 -11 0 -20 7 -20 15 0 11 -11 15 -40 15 -29 0 -40 -4 -40 -15 0 -8
-9 -15 -20 -15 -11 0 -20 7 -20 15 0 8 -9 15 -20 15 -13 0 -20 7 -20 20 0 17
7 20 40 20 l40 0 0 40 c0 33 -3 40 -20 40 -19 0 -20 7 -20 150 0 143 1 150 20
150 17 0 20 7 20 40 l0 40 -40 0 c-33 0 -40 3 -40 20 0 13 7 20 20 20 11 0 20
7 20 15 0 8 9 15 20 15 11 0 20 -7 20 -15z"/>
</g>
</svg>
