<?xml version="1.0" standalone="no"?>
<!DOCTYPE svg PUBLIC "-//W3C//DTD SVG 20010904//EN"
 "http://www.w3.org/TR/2001/REC-SVG-20010904/DTD/svg10.dtd">
<svg version="1.0" xmlns="http://www.w3.org/2000/svg"
 width="272.000000pt" height="272.000000pt" viewBox="0 0 272.000000 272.000000"
 preserveAspectRatio="xMidYMid meet">
<metadata>
Created by potrace 1.11, written by Peter Selinger 2001-2013
</metadata>
<g transform="translate(0.000000,272.000000) scale(0.100000,-0.100000)"
fill="#000000" stroke="none">
<path d="M827 2513 c-4 -3 -7 -26 -7 -49 l0 -43 -147 -3 -148 -3 -3 -97 -3
-98 -77 0 c-47 0 -83 -5 -90 -12 -8 -8 -12 -54 -12 -139 l0 -128 -47 -3 -48
-3 0 -570 0 -570 47 -3 48 -3 0 -128 c0 -85 4 -131 12 -139 7 -7 43 -12 90
-12 l77 0 3 -97 3 -98 147 -3 147 -3 3 -47 3 -47 520 0 520 0 3 48 3 47 128 0
c85 0 131 4 139 12 8 8 12 45 12 99 l0 88 48 3 47 3 3 137 3 137 97 3 97 3 0
570 0 570 -97 3 -97 3 -3 137 -3 137 -47 3 -48 3 0 88 c0 54 -4 91 -12 99 -8
8 -54 12 -139 12 l-128 0 -3 48 -3 47 -516 3 c-283 1 -519 -1 -522 -5z m-97
-438 c0 -25 1 -25 90 -25 89 0 90 0 90 25 0 24 3 25 55 25 52 0 55 -1 55 -25
0 -22 4 -25 35 -25 38 0 50 -20 43 -76 -3 -28 -5 -29 -85 -38 l-83 -9 0 -178
0 -178 43 -3 c42 -3 42 -3 47 -48 5 -44 6 -45 40 -45 33 0 35 2 38 37 l3 38
282 2 282 3 3 188 c2 145 0 188 -10 192 -7 2 -43 7 -80 10 l-68 7 0 39 c0 34
3 39 23 39 29 0 47 18 47 47 0 21 5 23 45 23 41 0 45 -2 45 -25 0 -24 3 -25
55 -25 52 0 55 1 55 25 0 23 4 25 40 25 36 0 40 -2 40 -25 0 -24 3 -25 55 -25
52 0 55 1 55 25 0 21 5 25 30 25 25 0 30 -4 30 -23 0 -33 19 -47 62 -47 37 0
38 -1 38 -38 l0 -39 -77 -9 -78 -9 -3 -572 -2 -573 29 0 c50 0 61 -9 61 -50 0
-21 -7 -43 -15 -50 -8 -7 -15 -23 -15 -36 0 -20 -5 -24 -30 -24 -25 0 -30 4
-30 25 0 24 -3 25 -55 25 -52 0 -55 -1 -55 -25 0 -22 -4 -25 -40 -25 -36 0
-40 3 -40 25 0 24 -3 25 -55 25 -52 0 -55 -1 -55 -25 0 -23 -4 -25 -45 -25
-40 0 -45 2 -45 23 0 29 -18 47 -47 47 -20 0 -23 5 -23 39 l0 39 68 7 c37 3
73 8 80 10 9 3 12 69 12 285 l0 280 -52 0 c-103 1 -583 2 -595 1 -9 -1 -13
-17 -13 -46 l0 -45 -40 0 -40 0 0 -234 0 -234 80 -7 80 -7 0 -54 0 -54 -35 0
c-31 0 -35 -3 -35 -25 0 -24 -3 -25 -55 -25 -52 0 -55 1 -55 25 0 25 -1 25
-90 25 -89 0 -90 0 -90 -25 0 -24 -3 -25 -55 -25 -52 0 -55 1 -55 24 0 23 -5
25 -47 28 l-48 3 0 50 0 50 93 9 92 9 0 98 0 99 -40 0 -40 0 0 365 0 365 40 0
40 0 0 99 0 98 -92 9 -93 9 0 50 0 50 48 3 c42 3 47 5 47 28 0 23 3 24 55 24
52 0 55 -1 55 -25z"/>
</g>
</svg>
